<svg width="1024" height="1024" viewBox="0 0 1024 1024" fill="none" xmlns="http://www.w3.org/2000/svg">
<path d="M816.142 159C820.69 175.296 835.35 210.299 842.03 227.324L896 362.259L512.132 864C502.914 853.595 491.431 837.379 482.637 825.866L428.253 754.944L224.002 488.974L162.416 407.956C152.034 394.136 138.871 375.309 128 362.4C141.936 322.724 162.352 277.946 177.698 238.043C184.906 219.302 200.842 176.462 209.151 159.996L396.333 404.736L449.691 474.094C460.89 488.538 474.175 504.876 484.485 519.67C491.127 593.763 497.34 667.886 503.117 742.04C504.731 761.802 506.467 781.555 508.325 801.298C509.117 810.249 510.893 825.724 510.853 834.381L512.853 833.294C512.863 815.533 517.147 781.982 518.761 762.747L532.457 599.555C534.325 577.648 538.904 540.378 539.35 519.904C586.335 456.698 636.477 393.759 684.315 330.936L767.99 221.624C783.533 201.323 800.01 178.604 816.142 159Z" fill="#7B39FC"/>
</svg>
