<svg width="1000" height="1000" viewBox="0 0 1000 1000" fill="none" xmlns="http://www.w3.org/2000/svg">
<path d="M391.4 373H327.4V341H391.4V373ZM782.6 349H779.4V345.8H782.6V349ZM310.6 349H307.4V345.8H310.6V349ZM630.6 349H627.4V345.8H630.6V349ZM654.6 349H651.4V345.8H654.6V349ZM758.6 349H755.4V345.8H758.6V349ZM694.6 349H691.4V345.8H694.6V349ZM658.6 357H655.4V353.8H658.6V357ZM674.6 357H671.4V353.8H674.6V357ZM274.6 357H271.4V353.8H274.6V357ZM290.6 357H287.4V353.8H290.6V357ZM706.6 373H703.4V369.8H706.6V373ZM682.6 373H679.4V369.8H682.6V373ZM746.6 373H711.4V341H743.4V369.8H746.6V373ZM282.6 373H279.4V369.8H282.6V373ZM770.6 373H767.4V369.8H770.6V373ZM266.6 373H231.4V341H263.4V369.8H266.6V373ZM642.6 373H639.4V369.8H642.6V373ZM618.6 373H615.4V369.8H618.6V373ZM322.6 373H319.4V369.8H322.6V373ZM298.6 373H295.4V369.8H298.6V373ZM422.6 377H419.4V373.8H422.6V377ZM710.6 377H707.4V373.8H710.6V377ZM414.6 377H411.4V373.8H414.6V377ZM702.6 377H699.4V373.8H702.6V377ZM694.6 377H691.4V373.8H694.6V377ZM686.6 377H683.4V373.8H686.6V377ZM406.6 377H403.4V373.8H406.6V377ZM398.6 377H395.4V373.8H398.6V377ZM310.6 381H307.4V377.8H310.6V381ZM394.6 381H391.4V377.8H394.6V381ZM742.6 381H739.4V377.8H742.6V381ZM410.6 381H407.4V377.8H410.6V381ZM334.6 381H331.4V377.8H334.6V381ZM598.6 381H595.4V377.8H598.6V381ZM622.6 381H619.4V377.8H622.6V381ZM302.6 381H299.4V377.8H302.6V381ZM278.6 381H275.4V377.8H278.6V381ZM706.6 381H703.4V377.8H706.6V381ZM402.6 381H399.4V377.8H402.6V381ZM698.6 381H695.4V377.8H698.6V381ZM418.6 381H415.4V377.8H418.6V381ZM690.6 381H687.4V377.8H690.6V381ZM238.6 381H235.4V377.8H238.6V381ZM734.6 381H731.4V377.8H734.6V381ZM342.6 381H339.4V377.8H342.6V381ZM718.6 381H715.4V377.8H718.6V381ZM246.6 381H243.4V377.8H246.6V381ZM366.6 381H363.4V377.8H366.6V381ZM374.6 381H371.4V377.8H374.6V381ZM254.6 381H251.4V377.8H254.6V381ZM398.6 381H395.4V377.8H398.6V381ZM726.6 381H723.4V377.8H726.6V381ZM262.6 381H259.4V377.8H262.6V381ZM686.6 385H683.4V381.8H686.6V385ZM694.6 385H691.4V381.8H694.6V385ZM422.6 385H419.4V381.8H422.6V385ZM702.6 385H699.4V381.8H702.6V385ZM406.6 385H403.4V381.8H406.6V385ZM710.6 385H707.4V381.8H710.6V385ZM414.6 385H411.4V381.8H414.6V385ZM398.6 385H395.4V381.8H398.6V385ZM258.6 389H255.4V385.8H258.6V389ZM250.6 389H247.4V385.8H250.6V389ZM722.6 389H719.4V385.8H722.6V389ZM242.6 389H239.4V385.8H242.6V389ZM714.6 389H711.4V385.8H714.6V389ZM690.6 389H687.4V385.8H690.6V389ZM234.6 389H231.4V385.8H234.6V389ZM642.6 389H639.4V385.8H642.6V389ZM418.6 389H415.4V385.8H418.6V389ZM698.6 389H695.4V385.8H698.6V389ZM626.6 389H623.4V385.8H626.6V389ZM410.6 389H407.4V385.8H410.6V389ZM730.6 389H727.4V385.8H730.6V389ZM402.6 389H399.4V385.8H402.6V389ZM394.6 389H391.4V385.8H394.6V389ZM738.6 389H735.4V385.8H738.6V389ZM706.6 389H703.4V385.8H706.6V389ZM710.6 393H707.4V389.8H710.6V393ZM422.6 393H419.4V389.8H422.6V393ZM702.6 393H699.4V389.8H702.6V393ZM694.6 393H691.4V389.8H694.6V393ZM414.6 393H411.4V389.8H414.6V393ZM686.6 393H683.4V389.8H686.6V393ZM406.6 393H403.4V389.8H406.6V393ZM398.6 393H395.4V389.8H398.6V393ZM706.6 397H703.4V393.8H706.6V397ZM418.6 397H415.4V393.8H418.6V397ZM698.6 397H695.4V393.8H698.6V397ZM742.6 397H739.4V393.8H742.6V397ZM718.6 397H715.4V393.8H718.6V397ZM690.6 397H687.4V393.8H690.6V397ZM726.6 397H723.4V393.8H726.6V397ZM262.6 397H259.4V393.8H262.6V397ZM254.6 397H251.4V393.8H254.6V397ZM734.6 397H731.4V393.8H734.6V397ZM402.6 397H399.4V393.8H402.6V397ZM246.6 397H243.4V393.8H246.6V397ZM238.6 397H235.4V393.8H238.6V397ZM410.6 397H407.4V393.8H410.6V397ZM394.6 397H391.4V393.8H394.6V397ZM414.6 401H411.4V397.8H414.6V401ZM422.6 401H419.4V397.8H422.6V401ZM406.6 401H403.4V397.8H406.6V401ZM398.6 401H395.4V397.8H398.6V401ZM710.6 401H707.4V397.8H710.6V401ZM686.6 401H683.4V397.8H686.6V401ZM694.6 401H691.4V397.8H694.6V401ZM702.6 401H699.4V397.8H702.6V401ZM743.4 437H711.4V401.8H714.6V405H719.4V401.8H722.6V405H727.4V401.8H730.6V405H735.4V401.8H738.6V405H743.4V437ZM698.6 405H695.4V401.8H698.6V405ZM410.6 405H407.4V401.8H410.6V405ZM354.6 405H351.4V401.8H354.6V405ZM610.6 405H607.4V401.8H610.6V405ZM706.6 405H703.4V401.8H706.6V405ZM690.6 405H687.4V401.8H690.6V405ZM258.6 405H255.4V401.8H258.6V405ZM250.6 405H247.4V401.8H250.6V405ZM586.6 405H583.4V401.8H586.6V405ZM386.6 405H383.4V401.8H386.6V405ZM362.6 405H359.4V401.8H362.6V405ZM418.6 405H415.4V401.8H418.6V405ZM634.6 405H631.4V401.8H634.6V405ZM618.6 405H615.4V401.8H618.6V405ZM298.6 405H295.4V401.8H298.6V405ZM242.6 405H239.4V401.8H242.6V405ZM322.6 405H319.4V401.8H322.6V405ZM234.6 405H231.4V401.8H234.6V405ZM402.6 405H399.4V401.8H402.6V405ZM330.6 405H327.4V401.8H330.6V405ZM394.6 405H391.4V401.8H394.6V405ZM630.6 409H627.4V405.8H630.6V409ZM406.6 409H403.4V405.8H406.6V409ZM414.6 409H411.4V405.8H414.6V409ZM422.6 409H419.4V405.8H422.6V409ZM398.6 409H395.4V405.8H398.6V409ZM638.6 409H635.4V405.8H638.6V409ZM622.6 409H619.4V405.8H622.6V409ZM302.6 409H299.4V405.8H302.6V409ZM646.6 409H643.4V405.8H646.6V409ZM326.6 409H323.4V405.8H326.6V409ZM374.6 409H371.4V405.8H374.6V409ZM382.6 409H379.4V405.8H382.6V409ZM390.6 409H387.4V405.8H390.6V409ZM318.6 409H315.4V405.8H318.6V409ZM310.6 409H307.4V405.8H310.6V409ZM366.6 409H363.4V405.8H366.6V409ZM366.6 413H363.4V409.8H366.6V413ZM598.6 413H595.4V409.8H598.6V413ZM342.6 413H339.4V409.8H342.6V413ZM642.6 413H639.4V409.8H642.6V413ZM622.6 413H619.4V409.8H622.6V413ZM306.6 413H303.4V409.8H306.6V413ZM314.6 413H311.4V409.8H314.6V413ZM634.6 413H631.4V409.8H634.6V413ZM618.6 413H615.4V409.8H618.6V413ZM418.6 413H415.4V409.8H418.6V413ZM710.6 413H707.4V409.8H710.6V413ZM386.6 413H383.4V409.8H386.6V413ZM702.6 413H699.4V409.8H702.6V413ZM410.6 413H407.4V409.8H410.6V413ZM378.6 413H375.4V409.8H378.6V413ZM694.6 413H691.4V409.8H694.6V413ZM686.6 413H683.4V409.8H686.6V413ZM322.6 413H319.4V409.8H322.6V413ZM402.6 413H399.4V409.8H402.6V413ZM370.6 413H367.4V409.8H370.6V413ZM362.6 413H359.4V409.8H362.6V413ZM394.6 413H391.4V409.8H394.6V413ZM626.6 413H623.4V409.8H626.6V413ZM422.6 417H419.4V413.8H422.6V417ZM398.6 417H395.4V413.8H398.6V417ZM302.6 417H299.4V413.8H302.6V417ZM646.6 417H643.4V413.8H646.6V417ZM630.6 417H627.4V413.8H630.6V417ZM310.6 417H307.4V413.8H310.6V417ZM318.6 417H315.4V413.8H318.6V417ZM622.6 417H619.4V413.8H622.6V417ZM366.6 417H363.4V413.8H366.6V417ZM638.6 417H635.4V413.8H638.6V417ZM390.6 417H387.4V413.8H390.6V417ZM326.6 417H323.4V413.8H326.6V417ZM414.6 417H411.4V413.8H414.6V417ZM382.6 417H379.4V413.8H382.6V417ZM406.6 417H403.4V413.8H406.6V417ZM374.6 417H371.4V413.8H374.6V417ZM370.6 421H367.4V417.8H370.6V421ZM394.6 421H391.4V417.8H394.6V421ZM306.6 421H303.4V417.8H306.6V421ZM626.6 421H623.4V417.8H626.6V421ZM690.6 421H687.4V417.8H690.6V421ZM410.6 421H407.4V417.8H410.6V421ZM642.6 421H639.4V417.8H642.6V421ZM378.6 421H375.4V417.8H378.6V421ZM314.6 421H311.4V417.8H314.6V421ZM698.6 421H695.4V417.8H698.6V421ZM634.6 421H631.4V417.8H634.6V421ZM706.6 421H703.4V417.8H706.6V421ZM618.6 421H615.4V417.8H618.6V421ZM386.6 421H383.4V417.8H386.6V421ZM362.6 421H359.4V417.8H362.6V421ZM402.6 421H399.4V417.8H402.6V421ZM322.6 421H319.4V417.8H322.6V421ZM418.6 421H415.4V417.8H418.6V421ZM326.6 425H323.4V421.8H326.6V425ZM422.6 425H419.4V421.8H422.6V425ZM630.6 425H627.4V421.8H630.6V425ZM390.6 425H387.4V421.8H390.6V425ZM646.6 425H643.4V421.8H646.6V425ZM366.6 425H363.4V421.8H366.6V425ZM302.6 425H299.4V421.8H302.6V425ZM318.6 425H315.4V421.8H318.6V425ZM622.6 425H619.4V421.8H622.6V425ZM382.6 425H379.4V421.8H382.6V425ZM414.6 425H411.4V421.8H414.6V425ZM638.6 425H635.4V421.8H638.6V425ZM310.6 425H307.4V421.8H310.6V425ZM398.6 425H395.4V421.8H398.6V425ZM406.6 425H403.4V421.8H406.6V425ZM374.6 425H371.4V421.8H374.6V425ZM642.6 429H639.4V425.8H642.6V429ZM410.6 429H407.4V425.8H410.6V429ZM626.6 429H623.4V425.8H626.6V429ZM702.6 429H699.4V425.8H702.6V429ZM322.6 429H319.4V425.8H322.6V429ZM710.6 429H707.4V425.8H710.6V429ZM314.6 429H311.4V425.8H314.6V429ZM618.6 429H615.4V425.8H618.6V429ZM386.6 429H383.4V425.8H386.6V429ZM378.6 429H375.4V425.8H378.6V429ZM634.6 429H631.4V425.8H634.6V429ZM694.6 429H691.4V425.8H694.6V429ZM370.6 429H367.4V425.8H370.6V429ZM306.6 429H303.4V425.8H306.6V429ZM686.6 429H683.4V425.8H686.6V429ZM418.6 429H415.4V425.8H418.6V429ZM362.6 429H359.4V425.8H362.6V429ZM394.6 429H391.4V425.8H394.6V429ZM402.6 429H399.4V425.8H402.6V429ZM414.6 433H411.4V429.8H414.6V433ZM406.6 433H403.4V429.8H406.6V433ZM302.6 433H299.4V429.8H302.6V433ZM398.6 433H395.4V429.8H398.6V433ZM366.6 433H363.4V429.8H366.6V433ZM422.6 433H419.4V429.8H422.6V433ZM374.6 433H371.4V429.8H374.6V433ZM310.6 433H307.4V429.8H310.6V433ZM318.6 433H315.4V429.8H318.6V433ZM646.6 433H643.4V429.8H646.6V433ZM382.6 433H379.4V429.8H382.6V433ZM638.6 433H635.4V429.8H638.6V433ZM622.6 433H619.4V429.8H622.6V433ZM326.6 433H323.4V429.8H326.6V433ZM630.6 433H627.4V429.8H630.6V433ZM390.6 433H387.4V429.8H390.6V433ZM706.6 437H703.4V433.8H706.6V437ZM698.6 437H695.4V433.8H698.6V437ZM298.6 437H263.4V401.8H266.6V405H287.4V401.8H290.6V405H295.4V409.8H298.6V413H295.4V417.8H298.6V421H295.4V425.8H298.6V429H295.4V433.8H298.6V437ZM394.6 437H391.4V433.8H394.6V437ZM690.6 437H687.4V433.8H690.6V437ZM322.6 437H319.4V433.8H322.6V437ZM682.6 437H647.4V369.8H650.6V373H663.4V369.8H666.6V373H679.4V377.8H682.6V381H679.4V385.8H682.6V389H679.4V393.8H682.6V397H679.4V401.8H682.6V405H679.4V417.8H682.6V421H679.4V433.8H682.6V437ZM402.6 437H399.4V433.8H402.6V437ZM410.6 437H407.4V433.8H410.6V437ZM418.6 437H415.4V433.8H418.6V437ZM586.6 437H551.4V405H583.4V433.8H586.6V437ZM306.6 437H303.4V433.8H306.6V437ZM610.6 437H607.4V433.8H610.6V437ZM354.6 437H351.4V433.8H354.6V437ZM330.6 437H327.4V433.8H330.6V437ZM314.6 437H311.4V433.8H314.6V437ZM455.4 469H423.4V437H455.4V469ZM302.6 445H299.4V441.8H302.6V445ZM286.6 445H283.4V441.8H286.6V445ZM598.6 445H595.4V441.8H598.6V445ZM278.6 445H275.4V441.8H278.6V445ZM326.6 445H323.4V441.8H326.6V445ZM694.6 445H691.4V441.8H694.6V445ZM294.6 445H291.4V441.8H294.6V445ZM718.6 445H715.4V441.8H718.6V445ZM686.6 445H683.4V441.8H686.6V445ZM310.6 445H307.4V441.8H310.6V445ZM662.6 445H659.4V441.8H662.6V445ZM270.6 445H267.4V441.8H270.6V445ZM318.6 445H315.4V441.8H318.6V445ZM406.6 445H403.4V441.8H406.6V445ZM590.6 445H587.4V441.8H590.6V445ZM566.6 445H563.4V441.8H566.6V445ZM274.6 453H271.4V449.8H274.6V453ZM282.6 453H279.4V449.8H282.6V453ZM322.6 453H319.4V449.8H322.6V453ZM338.6 453H335.4V449.8H338.6V453ZM354.6 453H351.4V449.8H354.6V453ZM314.6 453H311.4V449.8H314.6V453ZM306.6 453H303.4V449.8H306.6V453ZM290.6 453H287.4V449.8H290.6V453ZM266.6 453H263.4V449.8H266.6V453ZM298.6 453H295.4V449.8H298.6V453ZM278.6 461H275.4V457.8H278.6V461ZM302.6 461H299.4V457.8H302.6V461ZM286.6 461H283.4V457.8H286.6V461ZM326.6 461H323.4V457.8H326.6V461ZM270.6 461H267.4V457.8H270.6V461ZM310.6 461H307.4V457.8H310.6V461ZM318.6 461H315.4V457.8H318.6V461ZM294.6 461H291.4V457.8H294.6V461ZM682.6 469H679.4V465.8H682.6V469ZM274.6 469H271.4V465.8H274.6V469ZM706.6 469H703.4V465.8H706.6V469ZM674.6 469H671.4V465.8H674.6V469ZM290.6 469H287.4V465.8H290.6V469ZM418.6 469H415.4V465.8H418.6V469ZM394.6 469H359.4V433.8H362.6V437H367.4V433.8H370.6V437H375.4V433.8H378.6V437H383.4V433.8H386.6V437H391.4V465.8H394.6V469ZM554.6 469H551.4V465.8H554.6V469ZM578.6 469H575.4V465.8H578.6V469ZM266.6 469H263.4V465.8H266.6V469ZM282.6 469H279.4V465.8H282.6V469ZM558.6 477H555.4V473.8H558.6V477ZM382.6 477H379.4V473.8H382.6V477ZM670.6 477H667.4V473.8H670.6V477ZM374.6 477H371.4V473.8H374.6V477ZM694.6 477H691.4V473.8H694.6V477ZM438.6 477H435.4V473.8H438.6V477ZM686.6 477H683.4V473.8H686.6V477ZM654.6 477H651.4V473.8H654.6V477ZM662.6 477H659.4V473.8H662.6V477ZM462.6 477H459.4V473.8H462.6V477ZM534.6 477H531.4V473.8H534.6V477ZM566.6 477H563.4V473.8H566.6V477ZM366.6 477H363.4V473.8H366.6V477ZM390.6 477H387.4V473.8H390.6V477ZM710.6 477H707.4V473.8H710.6V477ZM678.6 477H675.4V473.8H678.6V477ZM702.6 477H699.4V473.8H702.6V477ZM706.6 485H703.4V481.8H706.6V485ZM674.6 485H671.4V481.8H674.6V485ZM698.6 485H695.4V481.8H698.6V485ZM386.6 485H383.4V481.8H386.6V485ZM418.6 485H415.4V481.8H418.6V485ZM370.6 485H367.4V481.8H370.6V485ZM402.6 485H399.4V481.8H402.6V485ZM682.6 485H679.4V481.8H682.6V485ZM658.6 485H655.4V481.8H658.6V485ZM666.6 485H663.4V481.8H666.6V485ZM378.6 485H375.4V481.8H378.6V485ZM690.6 485H687.4V481.8H690.6V485ZM382.6 493H379.4V489.8H382.6V493ZM670.6 493H667.4V489.8H670.6V493ZM662.6 493H659.4V489.8H662.6V493ZM686.6 493H683.4V489.8H686.6V493ZM374.6 493H371.4V489.8H374.6V493ZM390.6 493H387.4V489.8H390.6V493ZM678.6 493H675.4V489.8H678.6V493ZM710.6 493H707.4V489.8H710.6V493ZM654.6 493H651.4V489.8H654.6V493ZM702.6 493H699.4V489.8H702.6V493ZM694.6 493H691.4V489.8H694.6V493ZM366.6 493H363.4V489.8H366.6V493ZM682.6 501H679.4V497.8H682.6V501ZM690.6 501H687.4V497.8H690.6V501ZM410.6 501H407.4V497.8H410.6V501ZM394.6 501H391.4V497.8H394.6V501ZM658.6 501H655.4V497.8H658.6V501ZM666.6 501H663.4V497.8H666.6V501ZM554.6 501H551.4V497.8H554.6V501ZM706.6 501H703.4V497.8H706.6V501ZM674.6 501H671.4V497.8H674.6V501ZM578.6 501H575.4V497.8H578.6V501ZM698.6 501H695.4V497.8H698.6V501ZM638.6 505H635.4V501.8H638.6V505ZM582.6 505H579.4V501.8H582.6V505ZM630.6 505H627.4V501.8H630.6V505ZM646.6 505H643.4V501.8H646.6V505ZM574.6 505H571.4V501.8H574.6V505ZM566.6 505H563.4V501.8H566.6V505ZM558.6 505H555.4V501.8H558.6V505ZM622.6 505H619.4V501.8H622.6V505ZM634.6 509H631.4V505.8H634.6V509ZM398.6 509H395.4V505.8H398.6V509ZM406.6 509H403.4V505.8H406.6V509ZM578.6 509H575.4V505.8H578.6V509ZM654.6 509H651.4V505.8H654.6V509ZM642.6 509H639.4V505.8H642.6V509ZM342.6 509H339.4V505.8H342.6V509ZM414.6 509H411.4V505.8H414.6V509ZM570.6 509H567.4V505.8H570.6V509ZM626.6 509H623.4V505.8H626.6V509ZM562.6 509H559.4V505.8H562.6V509ZM678.6 509H675.4V505.8H678.6V509ZM422.6 509H419.4V505.8H422.6V509ZM670.6 509H667.4V505.8H670.6V509ZM662.6 509H659.4V505.8H662.6V509ZM558.6 513H555.4V509.8H558.6V513ZM566.6 513H563.4V509.8H566.6V513ZM574.6 513H571.4V509.8H574.6V513ZM646.6 513H643.4V509.8H646.6V513ZM582.6 513H579.4V509.8H582.6V513ZM638.6 513H635.4V509.8H638.6V513ZM622.6 513H619.4V509.8H622.6V513ZM630.6 513H627.4V509.8H630.6V513ZM306.6 517H303.4V513.8H306.6V517ZM322.6 517H319.4V513.8H322.6V517ZM650.6 517H647.4V513.8H650.6V517ZM562.6 517H559.4V513.8H562.6V517ZM666.6 517H663.4V513.8H666.6V517ZM570.6 517H567.4V513.8H570.6V517ZM658.6 517H655.4V513.8H658.6V517ZM642.6 517H639.4V513.8H642.6V517ZM626.6 517H623.4V513.8H626.6V517ZM578.6 517H575.4V513.8H578.6V517ZM418.6 517H415.4V513.8H418.6V517ZM674.6 517H671.4V513.8H674.6V517ZM410.6 517H407.4V513.8H410.6V517ZM634.6 517H631.4V513.8H634.6V517ZM402.6 517H399.4V513.8H402.6V517ZM638.6 521H635.4V517.8H638.6V521ZM622.6 521H619.4V517.8H622.6V521ZM566.6 521H563.4V517.8H566.6V521ZM574.6 521H571.4V517.8H574.6V521ZM630.6 521H627.4V517.8H630.6V521ZM646.6 521H643.4V517.8H646.6V521ZM582.6 521H579.4V517.8H582.6V521ZM558.6 521H555.4V517.8H558.6V521ZM634.6 525H631.4V521.8H634.6V525ZM678.6 525H675.4V521.8H678.6V525ZM670.6 525H667.4V521.8H670.6V525ZM642.6 525H639.4V521.8H642.6V525ZM422.6 525H419.4V521.8H422.6V525ZM398.6 525H395.4V521.8H398.6V525ZM578.6 525H575.4V521.8H578.6V525ZM414.6 525H411.4V521.8H414.6V525ZM570.6 525H567.4V521.8H570.6V525ZM626.6 525H623.4V521.8H626.6V525ZM654.6 525H651.4V521.8H654.6V525ZM406.6 525H403.4V521.8H406.6V525ZM562.6 525H559.4V521.8H562.6V525ZM662.6 525H659.4V521.8H662.6V525ZM646.6 529H643.4V525.8H646.6V529ZM622.6 529H619.4V525.8H622.6V529ZM582.6 529H579.4V525.8H582.6V529ZM630.6 529H627.4V525.8H630.6V529ZM574.6 529H571.4V525.8H574.6V529ZM558.6 529H555.4V525.8H558.6V529ZM566.6 529H563.4V525.8H566.6V529ZM638.6 529H635.4V525.8H638.6V529ZM314.6 533H311.4V529.8H314.6V533ZM330.6 533H327.4V529.8H330.6V533ZM354.6 533H351.4V529.8H354.6V533ZM618.6 533H623.4V529.8H626.6V533H631.4V529.8H634.6V533H639.4V529.8H642.6V533H647.4V529.8H650.6V533H655.4V529.8H658.6V533H663.4V529.8H666.6V533H671.4V529.8H674.6V533H679.4V565H615.4V533H583.4V465.8H586.6V469H607.4V465.8H610.6V469H615.4V433.8H618.6V437H623.4V433.8H626.6V437H631.4V433.8H634.6V437H639.4V433.8H642.6V437H647.4V465.8H650.6V469H647.4V481.8H650.6V485H647.4V497.8H650.6V501H615.4V505.8H618.6V509H615.4V513.8H618.6V517H615.4V521.8H618.6V525H615.4V529.8H618.6V533ZM298.6 533H295.4V529.8H298.6V533ZM598.6 537H595.4V533.8H598.6V537ZM470.6 537H467.4V533.8H470.6V537ZM486.6 537H483.4V533.8H486.6V537ZM462.6 537H459.4V533.8H462.6V537ZM590.6 537H587.4V533.8H590.6V537ZM606.6 537H603.4V533.8H606.6V537ZM518.6 537H515.4V533.8H518.6V537ZM478.6 537H475.4V533.8H478.6V537ZM510.6 537H507.4V533.8H510.6V537ZM614.6 537H611.4V533.8H614.6V537ZM494.6 537H491.4V533.8H494.6V537ZM502.6 537H499.4V533.8H502.6V537ZM498.6 541H495.4V537.8H498.6V541ZM342.6 541H339.4V537.8H342.6V541ZM610.6 541H607.4V537.8H610.6V541ZM506.6 541H503.4V537.8H506.6V541ZM490.6 541H487.4V537.8H490.6V541ZM602.6 541H599.4V537.8H602.6V541ZM474.6 541H471.4V537.8H474.6V541ZM514.6 541H511.4V537.8H514.6V541ZM482.6 541H479.4V537.8H482.6V541ZM594.6 541H591.4V537.8H594.6V541ZM466.6 541H463.4V537.8H466.6V541ZM470.6 545H467.4V541.8H470.6V545ZM598.6 545H595.4V541.8H598.6V545ZM486.6 545H483.4V541.8H486.6V545ZM606.6 545H603.4V541.8H606.6V545ZM590.6 545H587.4V541.8H590.6V545ZM462.6 545H459.4V541.8H462.6V545ZM518.6 545H515.4V541.8H518.6V545ZM494.6 545H491.4V541.8H494.6V545ZM478.6 545H475.4V541.8H478.6V545ZM614.6 545H611.4V541.8H614.6V545ZM510.6 545H507.4V541.8H510.6V545ZM502.6 545H499.4V541.8H502.6V545ZM466.6 549H463.4V545.8H466.6V549ZM594.6 549H591.4V545.8H594.6V549ZM602.6 549H599.4V545.8H602.6V549ZM482.6 549H479.4V545.8H482.6V549ZM490.6 549H487.4V545.8H490.6V549ZM610.6 549H607.4V545.8H610.6V549ZM506.6 549H503.4V545.8H506.6V549ZM474.6 549H471.4V545.8H474.6V549ZM498.6 549H495.4V545.8H498.6V549ZM514.6 549H511.4V545.8H514.6V549ZM502.6 553H499.4V549.8H502.6V553ZM462.6 553H459.4V549.8H462.6V553ZM598.6 553H595.4V549.8H598.6V553ZM470.6 553H467.4V549.8H470.6V553ZM510.6 553H507.4V549.8H510.6V553ZM486.6 553H483.4V549.8H486.6V553ZM590.6 553H587.4V549.8H590.6V553ZM606.6 553H603.4V549.8H606.6V553ZM494.6 553H491.4V549.8H494.6V553ZM614.6 553H611.4V549.8H614.6V553ZM478.6 553H475.4V549.8H478.6V553ZM518.6 553H515.4V549.8H518.6V553ZM514.6 557H511.4V553.8H514.6V557ZM490.6 557H487.4V553.8H490.6V557ZM594.6 557H591.4V553.8H594.6V557ZM474.6 557H471.4V553.8H474.6V557ZM610.6 557H607.4V553.8H610.6V557ZM602.6 557H599.4V553.8H602.6V557ZM482.6 557H479.4V553.8H482.6V557ZM498.6 557H495.4V553.8H498.6V557ZM466.6 557H463.4V553.8H466.6V557ZM506.6 557H503.4V553.8H506.6V557ZM518.6 561H515.4V557.8H518.6V561ZM494.6 561H491.4V557.8H494.6V561ZM462.6 561H459.4V557.8H462.6V561ZM470.6 561H467.4V557.8H470.6V561ZM590.6 561H587.4V557.8H590.6V561ZM502.6 561H499.4V557.8H502.6V561ZM486.6 561H483.4V557.8H486.6V561ZM606.6 561H603.4V557.8H606.6V561ZM478.6 561H475.4V557.8H478.6V561ZM510.6 561H507.4V557.8H510.6V561ZM598.6 561H595.4V557.8H598.6V561ZM614.6 561H611.4V557.8H614.6V561ZM354.6 565H351.4V561.8H354.6V565ZM594.6 565H591.4V561.8H594.6V565ZM330.6 565H327.4V561.8H330.6V565ZM602.6 565H599.4V561.8H602.6V565ZM490.6 565H487.4V561.8H490.6V565ZM514.6 565H511.4V561.8H514.6V565ZM498.6 565H495.4V561.8H498.6V565ZM506.6 565H503.4V561.8H506.6V565ZM610.6 565H607.4V561.8H610.6V565ZM542.6 569H539.4V565.8H542.6V569ZM534.6 569H531.4V565.8H534.6V569ZM550.6 569H547.4V565.8H550.6V569ZM614.6 569H611.4V565.8H614.6V569ZM526.6 569H523.4V565.8H526.6V569ZM606.6 569H603.4V565.8H606.6V569ZM590.6 569H587.4V565.8H590.6V569ZM598.6 569H595.4V565.8H598.6V569ZM594.6 573H591.4V569.8H594.6V573ZM406.6 573H403.4V569.8H406.6V573ZM526.6 573H523.4V569.8H526.6V573ZM522.6 573H519.4V569.8H522.6V573ZM398.6 573H395.4V569.8H398.6V573ZM530.6 573H527.4V569.8H530.6V573ZM586.6 573H583.4V569.8H586.6V573ZM538.6 573H535.4V569.8H538.6V573ZM602.6 573H599.4V569.8H602.6V573ZM546.6 573H543.4V569.8H546.6V573ZM502.6 573H499.4V569.8H502.6V573ZM422.6 573H419.4V569.8H422.6V573ZM414.6 573H411.4V569.8H414.6V573ZM610.6 573H607.4V569.8H610.6V573ZM630.6 573H627.4V569.8H630.6V573ZM654.6 573H651.4V569.8H654.6V573ZM598.6 577H595.4V573.8H598.6V577ZM534.6 577H531.4V573.8H534.6V577ZM606.6 577H603.4V573.8H606.6V577ZM542.6 577H539.4V573.8H542.6V577ZM550.6 577H547.4V573.8H550.6V577ZM590.6 577H587.4V573.8H590.6V577ZM526.6 577H523.4V573.8H526.6V577ZM614.6 577H611.4V573.8H614.6V577ZM402.6 581H399.4V577.8H402.6V581ZM338.6 581H335.4V577.8H338.6V581ZM410.6 581H407.4V577.8H410.6V581ZM610.6 581H607.4V577.8H610.6V581ZM418.6 581H415.4V577.8H418.6V581ZM522.6 581H519.4V577.8H522.6V581ZM586.6 581H583.4V577.8H586.6V581ZM394.6 581H391.4V577.8H394.6V581ZM386.6 581H383.4V577.8H386.6V581ZM546.6 581H543.4V577.8H546.6V581ZM538.6 581H535.4V577.8H538.6V581ZM602.6 581H599.4V577.8H602.6V581ZM354.6 581H351.4V577.8H354.6V581ZM578.6 581H575.4V577.8H578.6V581ZM594.6 581H591.4V577.8H594.6V581ZM530.6 581H527.4V577.8H530.6V581ZM562.6 581H559.4V577.8H562.6V581ZM370.6 581H367.4V577.8H370.6V581ZM606.6 585H603.4V581.8H606.6V585ZM598.6 585H595.4V581.8H598.6V585ZM526.6 585H523.4V581.8H526.6V585ZM590.6 585H587.4V581.8H590.6V585ZM614.6 585H611.4V581.8H614.6V585ZM534.6 585H531.4V581.8H534.6V585ZM542.6 585H539.4V581.8H542.6V585ZM550.6 585H547.4V581.8H550.6V585ZM594.6 589H591.4V585.8H594.6V589ZM602.6 589H599.4V585.8H602.6V589ZM522.6 589H519.4V585.8H522.6V589ZM586.6 589H583.4V585.8H586.6V589ZM610.6 589H607.4V585.8H610.6V589ZM530.6 589H527.4V585.8H530.6V589ZM538.6 589H535.4V585.8H538.6V589ZM398.6 589H395.4V585.8H398.6V589ZM546.6 589H543.4V585.8H546.6V589ZM406.6 589H403.4V585.8H406.6V589ZM422.6 589H419.4V585.8H422.6V589ZM414.6 589H411.4V585.8H414.6V589ZM606.6 593H603.4V589.8H606.6V593ZM598.6 593H595.4V589.8H598.6V593ZM526.6 593H523.4V589.8H526.6V593ZM614.6 593H611.4V589.8H614.6V593ZM590.6 593H587.4V589.8H590.6V593ZM534.6 593H531.4V589.8H534.6V593ZM542.6 593H539.4V589.8H542.6V593ZM550.6 593H547.4V589.8H550.6V593ZM410.6 597H407.4V593.8H410.6V597ZM618.6 597H615.4V593.8H618.6V597ZM418.6 597H415.4V593.8H418.6V597ZM642.6 597H639.4V593.8H642.6V597ZM402.6 597H399.4V593.8H402.6V597ZM546.6 597H543.4V593.8H546.6V597ZM394.6 597H391.4V593.8H394.6V597ZM538.6 597H535.4V593.8H538.6V597ZM346.6 597H343.4V593.8H346.6V597ZM330.6 597H327.4V593.8H330.6V597ZM530.6 597H527.4V593.8H530.6V597ZM522.6 597H519.4V593.8H522.6V597ZM622.6 605H619.4V601.8H622.6V605ZM406.6 605H403.4V601.8H406.6V605ZM646.6 605H643.4V601.8H646.6V605ZM638.6 605H635.4V601.8H638.6V605ZM630.6 605H627.4V601.8H630.6V605ZM530.6 613H527.4V609.8H530.6V613ZM642.6 613H639.4V609.8H642.6V613ZM634.6 613H631.4V609.8H634.6V613ZM626.6 613H623.4V609.8H626.6V613ZM546.6 613H543.4V609.8H546.6V613ZM646.6 621H643.4V617.8H646.6V621ZM638.6 621H635.4V617.8H638.6V621ZM622.6 621H619.4V617.8H622.6V621ZM630.6 621H627.4V617.8H630.6V621ZM538.6 629H535.4V625.8H538.6V629ZM394.6 629H359.4V593.8H362.6V597H375.4V593.8H378.6V597H391.4V625.8H394.6V629ZM418.6 629H415.4V625.8H418.6V629ZM642.6 629H639.4V625.8H642.6V629ZM634.6 629H631.4V625.8H634.6V629ZM554.6 597H567.4V593.8H570.6V597H583.4V593.8H586.6V597H591.4V593.8H594.6V597H599.4V593.8H602.6V597H607.4V593.8H610.6V597H615.4V609.8H618.6V613H615.4V625.8H618.6V629H551.4V593.8H554.6V597ZM626.6 629H623.4V625.8H626.6V629ZM606.6 633H603.4V629.8H606.6V633ZM582.6 633H579.4V629.8H582.6V633ZM590.6 633H587.4V629.8H590.6V633ZM614.6 633H611.4V629.8H614.6V633ZM558.6 633H555.4V629.8H558.6V633ZM566.6 633H563.4V629.8H566.6V633ZM598.6 633H595.4V629.8H598.6V633ZM574.6 633H571.4V629.8H574.6V633ZM586.6 637H583.4V633.8H586.6V637ZM562.6 637H559.4V633.8H562.6V637ZM570.6 637H567.4V633.8H570.6V637ZM550.6 637H547.4V633.8H550.6V637ZM534.6 637H531.4V633.8H534.6V637ZM554.6 637H551.4V633.8H554.6V637ZM398.6 637H395.4V633.8H398.6V637ZM502.6 637H499.4V633.8H502.6V637ZM594.6 637H591.4V633.8H594.6V637ZM526.6 637H523.4V633.8H526.6V637ZM578.6 637H575.4V633.8H578.6V637ZM414.6 637H411.4V633.8H414.6V637ZM542.6 637H539.4V633.8H542.6V637ZM602.6 637H599.4V633.8H602.6V637ZM406.6 637H403.4V633.8H406.6V637ZM422.6 637H419.4V633.8H422.6V637ZM610.6 637H607.4V633.8H610.6V637ZM574.6 641H571.4V637.8H574.6V641ZM590.6 641H587.4V637.8H590.6V641ZM558.6 641H555.4V637.8H558.6V641ZM598.6 641H595.4V637.8H598.6V641ZM582.6 641H579.4V637.8H582.6V641ZM614.6 641H611.4V637.8H614.6V641ZM606.6 641H603.4V637.8H606.6V641ZM566.6 641H563.4V637.8H566.6V641ZM386.6 645H383.4V641.8H386.6V645ZM586.6 645H583.4V641.8H586.6V645ZM546.6 645H543.4V641.8H546.6V645ZM418.6 645H415.4V641.8H418.6V645ZM562.6 645H559.4V641.8H562.6V645ZM602.6 645H599.4V641.8H602.6V645ZM410.6 645H407.4V641.8H410.6V645ZM578.6 645H575.4V641.8H578.6V645ZM554.6 645H551.4V641.8H554.6V645ZM538.6 645H535.4V641.8H538.6V645ZM402.6 645H399.4V641.8H402.6V645ZM522.6 645H519.4V641.8H522.6V645ZM570.6 645H567.4V641.8H570.6V645ZM394.6 645H391.4V641.8H394.6V645ZM594.6 645H591.4V641.8H594.6V645ZM370.6 645H367.4V641.8H370.6V645ZM530.6 645H527.4V641.8H530.6V645ZM610.6 645H607.4V641.8H610.6V645ZM614.6 649H611.4V645.8H614.6V649ZM566.6 649H563.4V645.8H566.6V649ZM590.6 649H587.4V645.8H590.6V649ZM582.6 649H579.4V645.8H582.6V649ZM598.6 649H595.4V645.8H598.6V649ZM606.6 649H603.4V645.8H606.6V649ZM574.6 649H571.4V645.8H574.6V649ZM558.6 649H555.4V645.8H558.6V649ZM554.6 653H551.4V649.8H554.6V653ZM610.6 653H607.4V649.8H610.6V653ZM398.6 653H395.4V649.8H398.6V653ZM406.6 653H403.4V649.8H406.6V653ZM578.6 653H575.4V649.8H578.6V653ZM562.6 653H559.4V649.8H562.6V653ZM414.6 653H411.4V649.8H414.6V653ZM422.6 653H419.4V649.8H422.6V653ZM550.6 653H547.4V649.8H550.6V653ZM594.6 653H591.4V649.8H594.6V653ZM602.6 653H599.4V649.8H602.6V653ZM570.6 653H567.4V649.8H570.6V653ZM542.6 653H539.4V649.8H542.6V653ZM586.6 653H583.4V649.8H586.6V653ZM534.6 653H531.4V649.8H534.6V653ZM526.6 653H523.4V649.8H526.6V653ZM558.6 657H555.4V653.8H558.6V657ZM566.6 657H563.4V653.8H566.6V657ZM614.6 657H611.4V653.8H614.6V657ZM574.6 657H571.4V653.8H574.6V657ZM606.6 657H603.4V653.8H606.6V657ZM590.6 657H587.4V653.8H590.6V657ZM582.6 657H579.4V653.8H582.6V657ZM598.6 657H595.4V653.8H598.6V657ZM578.6 661H575.4V657.8H578.6V661ZM570.6 661H567.4V657.8H570.6V661ZM562.6 661H559.4V657.8H562.6V661ZM554.6 661H551.4V657.8H554.6V661ZM362.6 661H359.4V657.8H362.6V661ZM378.6 661H375.4V657.8H378.6V661ZM586.6 661H583.4V657.8H586.6V661ZM546.6 661H543.4V657.8H546.6V661ZM538.6 661H535.4V657.8H538.6V661ZM530.6 661H527.4V657.8H530.6V661ZM522.6 661H519.4V657.8H522.6V661ZM594.6 661H591.4V657.8H594.6V661ZM610.6 661H607.4V657.8H610.6V661ZM602.6 661H599.4V657.8H602.6V661ZM394.6 661H391.4V657.8H394.6V661ZM402.6 661H399.4V657.8H402.6V661ZM410.6 661H407.4V657.8H410.6V661ZM418.6 661H415.4V657.8H418.6V661ZM514.6 661H511.4V657.8H514.6V661ZM490.6 661H423.4V565H359.4V501H295.4V465.8H298.6V469H303.4V465.8H306.6V469H311.4V465.8H314.6V469H319.4V465.8H322.6V469H327.4V465.8H330.6V469H343.4V465.8H346.6V469H359.4V481.8H362.6V485H359.4V497.8H362.6V501H367.4V497.8H370.6V501H375.4V497.8H378.6V501H383.4V497.8H386.6V501H391.4V513.8H394.6V517H391.4V529.8H394.6V533H399.4V529.8H402.6V533H407.4V529.8H410.6V533H415.4V529.8H418.6V533H423.4V497.8H426.6V501H447.4V497.8H450.6V501H519.4V497.8H522.6V501H543.4V497.8H546.6V501H551.4V505.8H554.6V509H551.4V513.8H554.6V517H551.4V521.8H554.6V525H551.4V529.8H554.6V533H559.4V529.8H562.6V533H567.4V529.8H570.6V533H575.4V529.8H578.6V533H583.4V537.8H586.6V541H583.4V545.8H586.6V549H583.4V553.8H586.6V557H583.4V561.8H586.6V565H519.4V533H455.4V537.8H458.6V541H455.4V545.8H458.6V549H455.4V553.8H458.6V557H455.4V561.8H458.6V565H463.4V561.8H466.6V565H471.4V561.8H474.6V565H479.4V561.8H482.6V565H487.4V593.8H490.6V597H511.4V593.8H514.6V597H519.4V625.8H522.6V629H487.4V657.8H490.6V661ZM398.6 665H395.4V661.8H398.6V665ZM406.6 665H403.4V661.8H406.6V665ZM414.6 665H411.4V661.8H414.6V665ZM422.6 665H419.4V661.8H422.6V665ZM462.6 669H459.4V665.8H462.6V669ZM470.6 669H467.4V665.8H470.6V669ZM478.6 669H475.4V665.8H478.6V669ZM486.6 669H483.4V665.8H486.6V669ZM494.6 669H491.4V665.8H494.6V669ZM502.6 669H499.4V665.8H502.6V669ZM510.6 669H507.4V665.8H510.6V669ZM518.6 669H515.4V665.8H518.6V669ZM438.6 669H435.4V665.8H438.6V669ZM418.6 669H415.4V665.8H418.6V669ZM534.6 669H531.4V665.8H534.6V669ZM558.6 669H555.4V665.8H558.6V669ZM410.6 669H407.4V665.8H410.6V669ZM402.6 669H399.4V665.8H402.6V669ZM394.6 669H391.4V665.8H394.6V669ZM614.6 669H611.4V665.8H614.6V669ZM606.6 669H603.4V665.8H606.6V669ZM598.6 669H595.4V665.8H598.6V669ZM590.6 669H587.4V665.8H590.6V669ZM422.6 673H419.4V669.8H422.6V673ZM414.6 673H411.4V669.8H414.6V673ZM406.6 673H403.4V669.8H406.6V673ZM398.6 673H395.4V669.8H398.6V673ZM514.6 677H511.4V673.8H514.6V677ZM586.6 677H583.4V673.8H586.6V677ZM474.6 677H471.4V673.8H474.6V677ZM394.6 677H391.4V673.8H394.6V677ZM562.6 677H559.4V673.8H562.6V677ZM594.6 677H591.4V673.8H594.6V677ZM482.6 677H479.4V673.8H482.6V677ZM466.6 677H463.4V673.8H466.6V677ZM602.6 677H599.4V673.8H602.6V677ZM402.6 677H399.4V673.8H402.6V677ZM458.6 677H455.4V673.8H458.6V677ZM610.6 677H607.4V673.8H610.6V677ZM410.6 677H407.4V673.8H410.6V677ZM418.6 677H415.4V673.8H418.6V677ZM578.6 677H575.4V673.8H578.6V677ZM506.6 677H503.4V673.8H506.6V677ZM490.6 677H487.4V673.8H490.6V677ZM498.6 677H495.4V673.8H498.6V677ZM422.6 681H419.4V677.8H422.6V681ZM398.6 681H395.4V677.8H398.6V681ZM406.6 681H403.4V677.8H406.6V681ZM414.6 681H411.4V677.8H414.6V681ZM502.6 685H499.4V681.8H502.6V685ZM478.6 685H475.4V681.8H478.6V685ZM418.6 685H415.4V681.8H418.6V685ZM510.6 685H507.4V681.8H510.6V685ZM494.6 685H491.4V681.8H494.6V685ZM518.6 685H515.4V681.8H518.6V685ZM462.6 685H459.4V681.8H462.6V685ZM614.6 685H611.4V681.8H614.6V685ZM410.6 685H407.4V681.8H410.6V685ZM470.6 685H467.4V681.8H470.6V685ZM606.6 685H603.4V681.8H606.6V685ZM402.6 685H399.4V681.8H402.6V685ZM598.6 685H595.4V681.8H598.6V685ZM486.6 685H483.4V681.8H486.6V685ZM590.6 685H587.4V681.8H590.6V685ZM394.6 685H391.4V681.8H394.6V685ZM422.6 689H419.4V685.8H422.6V689ZM414.6 689H411.4V685.8H414.6V689ZM406.6 689H403.4V685.8H406.6V689ZM398.6 689H395.4V685.8H398.6V689ZM586.6 693H583.4V689.8H586.6V693ZM474.6 693H471.4V689.8H474.6V693ZM482.6 693H479.4V689.8H482.6V693ZM594.6 693H591.4V689.8H594.6V693ZM602.6 693H599.4V689.8H602.6V693ZM394.6 693H391.4V689.8H394.6V693ZM554.6 693H567.4V689.8H570.6V693H583.4V725H551.4V689.8H554.6V693ZM402.6 693H399.4V689.8H402.6V693ZM466.6 693H463.4V689.8H466.6V693ZM610.6 693H607.4V689.8H610.6V693ZM418.6 693H415.4V689.8H418.6V693ZM458.6 693H455.4V689.8H458.6V693ZM410.6 693H407.4V689.8H410.6V693ZM522.6 693H519.4V689.8H522.6V693ZM546.6 693H543.4V689.8H546.6V693ZM450.6 693H447.4V689.8H450.6V693ZM426.6 693H423.4V689.8H426.6V693ZM398.6 697H395.4V693.8H398.6V697ZM526.6 697H523.4V693.8H526.6V697ZM550.6 697H547.4V693.8H550.6V697ZM406.6 697H403.4V693.8H406.6V697ZM542.6 697H539.4V693.8H542.6V697ZM534.6 697H531.4V693.8H534.6V697ZM422.6 697H419.4V693.8H422.6V697ZM414.6 697H411.4V693.8H414.6V697ZM438.6 701H435.4V697.8H438.6V701ZM462.6 701H459.4V697.8H462.6V701ZM470.6 701H467.4V697.8H470.6V701ZM402.6 701H399.4V697.8H402.6V701ZM546.6 701H543.4V697.8H546.6V701ZM394.6 701H391.4V697.8H394.6V701ZM530.6 701H527.4V697.8H530.6V701ZM538.6 701H535.4V697.8H538.6V701ZM418.6 701H415.4V697.8H418.6V701ZM410.6 701H407.4V697.8H410.6V701ZM422.6 705H419.4V701.8H422.6V705ZM550.6 705H547.4V701.8H550.6V705ZM414.6 705H411.4V701.8H414.6V705ZM406.6 705H403.4V701.8H406.6V705ZM526.6 705H523.4V701.8H526.6V705ZM534.6 705H531.4V701.8H534.6V705ZM398.6 705H395.4V701.8H398.6V705ZM542.6 705H539.4V701.8H542.6V705ZM538.6 709H535.4V705.8H538.6V709ZM530.6 709H527.4V705.8H530.6V709ZM394.6 709H391.4V705.8H394.6V709ZM546.6 709H543.4V705.8H546.6V709ZM418.6 709H415.4V705.8H418.6V709ZM410.6 709H407.4V705.8H410.6V709ZM402.6 709H399.4V705.8H402.6V709ZM398.6 713H395.4V709.8H398.6V713ZM542.6 713H539.4V709.8H542.6V713ZM534.6 713H531.4V709.8H534.6V713ZM526.6 713H523.4V709.8H526.6V713ZM550.6 713H547.4V709.8H550.6V713ZM422.6 713H419.4V709.8H422.6V713ZM414.6 713H411.4V709.8H414.6V713ZM406.6 713H403.4V709.8H406.6V713ZM402.6 717H399.4V713.8H402.6V717ZM538.6 717H535.4V713.8H538.6V717ZM394.6 717H391.4V713.8H394.6V717ZM546.6 717H543.4V713.8H546.6V717ZM410.6 717H407.4V713.8H410.6V717ZM530.6 717H527.4V713.8H530.6V717ZM418.6 717H415.4V713.8H418.6V717ZM406.6 721H403.4V717.8H406.6V721ZM542.6 721H539.4V717.8H542.6V721ZM414.6 721H411.4V717.8H414.6V721ZM550.6 721H547.4V717.8H550.6V721ZM526.6 721H523.4V717.8H526.6V721ZM398.6 721H395.4V717.8H398.6V721ZM534.6 721H531.4V717.8H534.6V721ZM422.6 721H419.4V717.8H422.6V721ZM418.6 725H415.4V721.8H418.6V725ZM530.6 725H527.4V721.8H530.6V725ZM394.6 725H391.4V721.8H394.6V725ZM538.6 725H535.4V721.8H538.6V725ZM546.6 725H543.4V721.8H546.6V725ZM402.6 725H399.4V721.8H402.6V725ZM450.6 725H447.4V721.8H450.6V725ZM410.6 725H407.4V721.8H410.6V725ZM426.6 725H423.4V721.8H426.6V725ZM414.6 733H411.4V729.8H414.6V733ZM422.6 733H419.4V729.8H422.6V733ZM590.6 733H587.4V729.8H590.6V733ZM550.6 733H547.4V729.8H550.6V733ZM526.6 733H523.4V729.8H526.6V733ZM398.6 733H395.4V729.8H398.6V733ZM566.6 733H563.4V729.8H566.6V733ZM542.6 733H539.4V729.8H542.6V733ZM406.6 733H403.4V729.8H406.6V733ZM534.6 733H531.4V729.8H534.6V733ZM530.6 741H527.4V737.8H530.6V741ZM538.6 741H535.4V737.8H538.6V741ZM402.6 741H399.4V737.8H402.6V741ZM410.6 741H407.4V737.8H410.6V741ZM394.6 741H391.4V737.8H394.6V741ZM450.6 741H447.4V737.8H450.6V741ZM546.6 741H543.4V737.8H546.6V741ZM434.6 741H431.4V737.8H434.6V741ZM418.6 741H415.4V737.8H418.6V741ZM422.6 749H419.4V745.8H422.6V749ZM534.6 749H531.4V745.8H534.6V749ZM542.6 749H539.4V745.8H542.6V749ZM406.6 749H403.4V745.8H406.6V749ZM414.6 749H411.4V745.8H414.6V749ZM526.6 749H523.4V745.8H526.6V749ZM398.6 749H395.4V745.8H398.6V749ZM550.6 749H547.4V745.8H550.6V749ZM426.6 757H423.4V753.8H426.6V757ZM442.6 757H439.4V753.8H442.6V757ZM554.6 757H551.4V753.8H554.6V757ZM546.6 757H543.4V753.8H546.6V757ZM578.6 757H575.4V753.8H578.6V757ZM458.6 725H479.4V721.8H482.6V725H487.4V689.8H490.6V693H495.4V689.8H498.6V693H503.4V689.8H506.6V693H511.4V689.8H514.6V693H519.4V697.8H522.6V701H519.4V705.8H522.6V709H519.4V713.8H522.6V717H519.4V721.8H522.6V725H519.4V737.8H522.6V741H519.4V753.8H522.6V757H455.4V721.8H458.6V725ZM530.6 757H527.4V753.8H530.6V757ZM538.6 757H535.4V753.8H538.6V757ZM550.6 761H547.4V757.8H550.6V761ZM526.6 761H523.4V757.8H526.6V761ZM542.6 761H539.4V757.8H542.6V761ZM534.6 761H531.4V757.8H534.6V761ZM518.6 765H515.4V761.8H518.6V765ZM510.6 765H507.4V761.8H510.6V765ZM494.6 765H491.4V761.8H494.6V765ZM546.6 765H543.4V761.8H546.6V765ZM522.6 765H519.4V761.8H522.6V765ZM530.6 765H527.4V761.8H530.6V765ZM538.6 765H535.4V761.8H538.6V765ZM502.6 765H499.4V761.8H502.6V765ZM542.6 769H539.4V765.8H542.6V769ZM550.6 769H547.4V765.8H550.6V769ZM534.6 769H531.4V765.8H534.6V769ZM526.6 769H523.4V765.8H526.6V769ZM498.6 773H495.4V769.8H498.6V773ZM530.6 773H527.4V769.8H530.6V773ZM562.6 773H559.4V769.8H562.6V773ZM578.6 773H575.4V769.8H578.6V773ZM546.6 773H543.4V769.8H546.6V773ZM514.6 773H511.4V769.8H514.6V773ZM522.6 773H519.4V769.8H522.6V773ZM482.6 773H479.4V769.8H482.6V773ZM466.6 773H463.4V769.8H466.6V773ZM538.6 773H535.4V769.8H538.6V773ZM434.6 773H431.4V769.8H434.6V773ZM450.6 773H447.4V769.8H450.6V773ZM506.6 773H503.4V769.8H506.6V773ZM490.6 773H487.4V769.8H490.6V773ZM534.6 777H531.4V773.8H534.6V777ZM526.6 777H523.4V773.8H526.6V777ZM550.6 777H547.4V773.8H550.6V777ZM542.6 777H539.4V773.8H542.6V777ZM530.6 781H527.4V777.8H530.6V781ZM522.6 781H519.4V777.8H522.6V781ZM546.6 781H543.4V777.8H546.6V781ZM518.6 781H515.4V777.8H518.6V781ZM510.6 781H507.4V777.8H510.6V781ZM538.6 781H535.4V777.8H538.6V781ZM494.6 781H491.4V777.8H494.6V781ZM502.6 781H499.4V777.8H502.6V781ZM534.6 785H531.4V781.8H534.6V785ZM550.6 785H547.4V781.8H550.6V785ZM526.6 785H523.4V781.8H526.6V785ZM542.6 785H539.4V781.8H542.6V785ZM538.6 789H535.4V785.8H538.6V789ZM522.6 789H519.4V785.8H522.6V789ZM546.6 789H543.4V785.8H546.6V789ZM458.6 789H455.4V785.8H458.6V789ZM474.6 789H471.4V785.8H474.6V789ZM554.6 789H551.4V785.8H554.6V789ZM530.6 789H527.4V785.8H530.6V789ZM570.6 789H567.4V785.8H570.6V789ZM526.6 797H523.4V793.8H526.6V797ZM534.6 797H531.4V793.8H534.6V797ZM542.6 797H539.4V793.8H542.6V797ZM550.6 797H547.4V793.8H550.6V797ZM406.6 797H403.4V793.8H406.6V797ZM470.6 797H467.4V793.8H470.6V797ZM574.6 797H571.4V793.8H574.6V797ZM582.6 797H579.4V793.8H582.6V797ZM558.6 797H555.4V793.8H558.6V797ZM566.6 797H563.4V793.8H566.6V797ZM562.6 805H559.4V801.8H562.6V805ZM546.6 805H543.4V801.8H546.6V805ZM538.6 805H535.4V801.8H538.6V805ZM530.6 805H527.4V801.8H530.6V805ZM570.6 805H567.4V801.8H570.6V805ZM578.6 805H575.4V801.8H578.6V805ZM554.6 805H551.4V801.8H554.6V805ZM558.6 813H555.4V809.8H558.6V813ZM582.6 813H579.4V809.8H582.6V813ZM526.6 813H523.4V809.8H526.6V813ZM550.6 813H547.4V809.8H550.6V813ZM542.6 813H539.4V809.8H542.6V813ZM534.6 813H531.4V809.8H534.6V813ZM574.6 813H571.4V809.8H574.6V813ZM566.6 813H563.4V809.8H566.6V813ZM538.6 821H535.4V817.8H538.6V821ZM418.6 821H415.4V817.8H418.6V821ZM562.6 821H559.4V817.8H562.6V821ZM482.6 821H479.4V817.8H482.6V821ZM570.6 821H567.4V817.8H570.6V821ZM578.6 821H575.4V817.8H578.6V821ZM546.6 821H543.4V817.8H546.6V821ZM490.6 789H495.4V785.8H498.6V789H503.4V785.8H506.6V789H511.4V785.8H514.6V789H519.4V801.8H522.6V805H519.4V817.8H522.6V821H487.4V785.8H490.6V789ZM554.6 821H551.4V817.8H554.6V821ZM530.6 821H527.4V817.8H530.6V821ZM394.6 821H391.4V817.8H394.6V821ZM534.6 829H531.4V825.8H534.6V829ZM582.6 829H579.4V825.8H582.6V829ZM470.6 829H467.4V825.8H470.6V829ZM526.6 829H523.4V825.8H526.6V829ZM574.6 829H571.4V825.8H574.6V829ZM550.6 829H547.4V825.8H550.6V829ZM494.6 829H491.4V825.8H494.6V829ZM542.6 829H539.4V825.8H542.6V829ZM502.6 829H499.4V825.8H502.6V829ZM558.6 829H555.4V825.8H558.6V829ZM566.6 829H563.4V825.8H566.6V829ZM570.6 837H567.4V833.8H570.6V837ZM578.6 837H575.4V833.8H578.6V837ZM418.6 837H415.4V833.8H418.6V837ZM522.6 837H519.4V833.8H522.6V837ZM546.6 837H543.4V833.8H546.6V837ZM562.6 837H559.4V833.8H562.6V837ZM402.6 837H399.4V833.8H402.6V837ZM554.6 837H551.4V833.8H554.6V837ZM538.6 837H535.4V833.8H538.6V837ZM530.6 837H527.4V833.8H530.6V837ZM550.6 845H547.4V841.8H550.6V845ZM582.6 845H579.4V841.8H582.6V845ZM542.6 845H539.4V841.8H542.6V845ZM558.6 845H555.4V841.8H558.6V845ZM534.6 845H531.4V841.8H534.6V845ZM566.6 845H563.4V841.8H566.6V845ZM526.6 845H523.4V841.8H526.6V845ZM574.6 845H571.4V841.8H574.6V845ZM394.6 853H391.4V849.8H394.6V853ZM578.6 853H575.4V849.8H578.6V853ZM554.6 853H551.4V849.8H554.6V853ZM538.6 853H535.4V849.8H538.6V853ZM522.6 853H519.4V849.8H522.6V853ZM570.6 853H567.4V849.8H570.6V853ZM490.6 853H487.4V849.8H490.6V853ZM562.6 853H559.4V849.8H562.6V853ZM530.6 853H527.4V849.8H530.6V853ZM546.6 853H543.4V849.8H546.6V853ZM514.6 853H511.4V849.8H514.6V853ZM410.6 853H407.4V849.8H410.6V853ZM558.6 861H555.4V857.8H558.6V861ZM438.6 861H435.4V857.8H438.6V861ZM534.6 861H531.4V857.8H534.6V861ZM418.6 869H415.4V865.8H418.6V869ZM402.6 869H399.4V865.8H402.6V869ZM562.6 869H559.4V865.8H562.6V869ZM578.6 869H575.4V865.8H578.6V869ZM514.6 869H511.4V865.8H514.6V869ZM498.6 869H495.4V865.8H498.6V869ZM450.6 885H447.4V881.8H450.6V885ZM554.6 885H551.4V881.8H554.6V885ZM410.6 885H407.4V881.8H410.6V885ZM394.6 885H391.4V881.8H394.6V885ZM570.6 885H567.4V881.8H570.6V885ZM426.6 885H423.4V881.8H426.6V885ZM506.6 885H503.4V881.8H506.6V885ZM522.6 885H519.4V881.8H522.6V885ZM394.6 757H399.4V753.8H402.6V757H407.4V753.8H410.6V757H415.4V753.8H418.6V757H423.4V785.8H426.6V789H439.4V785.8H442.6V789H455.4V817.8H458.6V821H455.4V849.8H458.6V853H479.4V849.8H482.6V853H487.4V881.8H490.6V885H455.4V853H423.4V789H391.4V753.8H394.6V757ZM546.6 885H543.4V881.8H546.6V885Z" fill="white"/>
<path d="M408.2 123H405V119.8H408.2V123ZM384.2 123H381V119.8H384.2V123ZM376.2 123H373V119.8H376.2V123ZM352.2 123H349V119.8H352.2V123ZM288.2 123H285V119.8H288.2V123ZM748.2 131H745V127.8H748.2V131ZM732.2 131H729V127.8H732.2V131ZM740.2 147H737V143.8H740.2V147ZM372.2 147H369V143.8H372.2V147ZM396.2 147H393V143.8H396.2V147ZM752.2 151H749V147.8H752.2V151ZM408.2 151H405V147.8H408.2V151ZM416.2 151H413V147.8H416.2V151ZM272.2 151H269V147.8H272.2V151ZM728.2 151H725V147.8H728.2V151ZM264.2 151H261V147.8H264.2V151ZM256.2 151H253V147.8H256.2V151ZM736.2 151H733V147.8H736.2V151ZM744.2 151H741V147.8H744.2V151ZM248.2 151H245V147.8H248.2V151ZM424.2 151H421V147.8H424.2V151ZM432.2 151H429V147.8H432.2V151ZM376.2 155H373V151.8H376.2V155ZM748.2 155H745V151.8H748.2V155ZM384.2 155H381V151.8H384.2V155ZM392.2 155H389V151.8H392.2V155ZM428.2 155H425V151.8H428.2V155ZM648.2 155H645V151.8H648.2V155ZM252.2 155H249V151.8H252.2V155ZM400.2 155H397V151.8H400.2V155ZM656.2 155H653V151.8H656.2V155ZM632.2 155H629V151.8H632.2V155ZM732.2 155H729V151.8H732.2V155ZM640.2 155H637V151.8H640.2V155ZM740.2 155H737V151.8H740.2V155ZM420.2 155H417V151.8H420.2V155ZM260.2 155H257V151.8H260.2V155ZM404.2 155H401V151.8H404.2V155ZM244.2 155H241V151.8H244.2V155ZM268.2 155H265V151.8H268.2V155ZM412.2 155H409V151.8H412.2V155ZM728.2 159H725V155.8H728.2V159ZM752.2 159H749V155.8H752.2V159ZM416.2 159H413V155.8H416.2V159ZM248.2 159H245V155.8H248.2V159ZM736.2 159H733V155.8H736.2V159ZM272.2 159H269V155.8H272.2V159ZM424.2 159H421V155.8H424.2V159ZM408.2 159H405V155.8H408.2V159ZM264.2 159H261V155.8H264.2V159ZM432.2 159H429V155.8H432.2V159ZM744.2 159H741V155.8H744.2V159ZM256.2 159H253V155.8H256.2V159ZM252.2 163H249V159.8H252.2V163ZM380.2 163H377V159.8H380.2V163ZM732.2 163H729V159.8H732.2V163ZM388.2 163H385V159.8H388.2V163ZM636.2 163H633V159.8H636.2V163ZM260.2 163H257V159.8H260.2V163ZM428.2 163H425V159.8H428.2V163ZM396.2 163H393V159.8H396.2V163ZM652.2 163H649V159.8H652.2V163ZM748.2 163H745V159.8H748.2V163ZM684.2 163H681V159.8H684.2V163ZM740.2 163H737V159.8H740.2V163ZM268.2 163H265V159.8H268.2V163ZM644.2 163H641V159.8H644.2V163ZM244.2 163H241V159.8H244.2V163ZM332.2 163H329V159.8H332.2V163ZM316.2 163H313V159.8H316.2V163ZM668.2 163H665V159.8H668.2V163ZM404.2 163H401V159.8H404.2V163ZM420.2 163H417V159.8H420.2V163ZM412.2 163H409V159.8H412.2V163ZM416.2 167H413V163.8H416.2V167ZM256.2 167H253V163.8H256.2V167ZM736.2 167H733V163.8H736.2V167ZM728.2 167H725V163.8H728.2V167ZM424.2 167H421V163.8H424.2V167ZM264.2 167H261V163.8H264.2V167ZM744.2 167H741V163.8H744.2V167ZM432.2 167H429V163.8H432.2V167ZM408.2 167H405V163.8H408.2V167ZM752.2 167H749V163.8H752.2V167ZM272.2 167H269V163.8H272.2V167ZM248.2 167H245V163.8H248.2V167ZM244.2 171H241V167.8H244.2V171ZM732.2 171H729V167.8H732.2V171ZM632.2 171H629V167.8H632.2V171ZM376.2 171H373V167.8H376.2V171ZM656.2 171H653V167.8H656.2V171ZM404.2 171H401V167.8H404.2V171ZM428.2 171H425V167.8H428.2V171ZM648.2 171H645V167.8H648.2V171ZM748.2 171H745V167.8H748.2V171ZM400.2 171H397V167.8H400.2V171ZM252.2 171H249V167.8H252.2V171ZM740.2 171H737V167.8H740.2V171ZM260.2 171H257V167.8H260.2V171ZM392.2 171H389V167.8H392.2V171ZM420.2 171H417V167.8H420.2V171ZM640.2 171H637V167.8H640.2V171ZM412.2 171H409V167.8H412.2V171ZM384.2 171H381V167.8H384.2V171ZM268.2 171H265V167.8H268.2V171ZM424.2 175H421V171.8H424.2V175ZM264.2 175H261V171.8H264.2V175ZM752.2 175H749V171.8H752.2V175ZM432.2 175H429V171.8H432.2V175ZM744.2 175H741V171.8H744.2V175ZM248.2 175H245V171.8H248.2V175ZM256.2 175H253V171.8H256.2V175ZM736.2 175H733V171.8H736.2V175ZM728.2 175H725V171.8H728.2V175ZM408.2 175H405V171.8H408.2V175ZM272.2 175H269V171.8H272.2V175ZM416.2 175H413V171.8H416.2V175ZM380.2 179H377V175.8H380.2V179ZM732.2 179H729V175.8H732.2V179ZM268.2 179H265V175.8H268.2V179ZM388.2 179H385V175.8H388.2V179ZM260.2 179H257V175.8H260.2V179ZM372.2 179H337V147H305V115H337V143.8H340.2V147H361V143.8H364.2V147H369V159.8H372.2V163H369V175.8H372.2V179ZM252.2 179H249V175.8H252.2V179ZM740.2 179H737V175.8H740.2V179ZM433 275H401V175.8H404.2V179H409V175.8H412.2V179H417V175.8H420.2V179H425V175.8H428.2V179H433V275ZM636.2 179H633V175.8H636.2V179ZM244.2 179H241V175.8H244.2V179ZM628.2 179H593V115H721V143.8H724.2V147H721V151.8H724.2V155H721V159.8H724.2V163H721V167.8H724.2V171H721V175.8H724.2V179H689V147H625V159.8H628.2V163H625V175.8H628.2V179ZM676.2 179H673V175.8H676.2V179ZM644.2 179H641V175.8H644.2V179ZM396.2 179H393V175.8H396.2V179ZM748.2 179H745V175.8H748.2V179ZM652.2 179H649V175.8H652.2V179ZM324.2 179H321V175.8H324.2V179ZM660.2 179H657V175.8H660.2V179ZM308.2 179H273V147H241V115H273V143.8H276.2V147H297V143.8H300.2V147H305V175.8H308.2V179ZM312.2 183H309V179.8H312.2V183ZM320.2 183H317V179.8H320.2V183ZM328.2 183H325V179.8H328.2V183ZM336.2 183H333V179.8H336.2V183ZM608.2 187H605V183.8H608.2V187ZM664.2 187H661V183.8H664.2V187ZM288.2 187H285V183.8H288.2V187ZM640.2 187H637V183.8H640.2V187ZM632.2 187H629V183.8H632.2V187ZM332.2 187H329V183.8H332.2V187ZM744.2 187H741V183.8H744.2V187ZM736.2 187H733V183.8H736.2V187ZM728.2 187H725V183.8H728.2V187ZM384.2 187H381V183.8H384.2V187ZM324.2 187H321V183.8H324.2V187ZM308.2 187H305V183.8H308.2V187ZM752.2 187H749V183.8H752.2V187ZM316.2 187H313V183.8H316.2V187ZM312.2 187H309V183.8H312.2V187ZM320.2 191H317V187.8H320.2V191ZM336.2 191H333V187.8H336.2V191ZM312.2 191H309V187.8H312.2V191ZM328.2 191H325V187.8H328.2V191ZM348.2 195H345V191.8H348.2V195ZM316.2 195H313V191.8H316.2V195ZM700.2 195H697V191.8H700.2V195ZM324.2 195H321V191.8H324.2V195ZM364.2 195H361V191.8H364.2V195ZM668.2 195H665V191.8H668.2V195ZM684.2 195H681V191.8H684.2V195ZM716.2 195H713V191.8H716.2V195ZM308.2 195H305V191.8H308.2V195ZM724.2 195H721V191.8H724.2V195ZM268.2 195H265V191.8H268.2V195ZM252.2 195H249V191.8H252.2V195ZM732.2 195H729V191.8H732.2V195ZM740.2 195H737V191.8H740.2V195ZM332.2 195H329V191.8H332.2V195ZM748.2 195H745V191.8H748.2V195ZM328.2 199H325V195.8H328.2V199ZM312.2 199H309V195.8H312.2V199ZM336.2 199H333V195.8H336.2V199ZM320.2 199H317V195.8H320.2V199ZM324.2 203H321V199.8H324.2V203ZM316.2 203H313V199.8H316.2V203ZM308.2 203H305V199.8H308.2V203ZM728.2 203H725V199.8H728.2V203ZM332.2 203H329V199.8H332.2V203ZM736.2 203H733V199.8H736.2V203ZM744.2 203H741V199.8H744.2V203ZM752.2 203H749V199.8H752.2V203ZM336.2 207H333V203.8H336.2V207ZM328.2 207H325V203.8H328.2V207ZM320.2 207H317V203.8H320.2V207ZM312.2 207H309V203.8H312.2V207ZM620.2 211H617V207.8H620.2V211ZM332.2 211H329V207.8H332.2V211ZM708.2 211H705V207.8H708.2V211ZM340.2 211H337V207.8H340.2V211ZM692.2 211H689V207.8H692.2V211ZM396.2 211H393V207.8H396.2V211ZM748.2 211H745V207.8H748.2V211ZM324.2 211H321V207.8H324.2V211ZM676.2 211H673V207.8H676.2V211ZM740.2 211H737V207.8H740.2V211ZM652.2 211H649V207.8H652.2V211ZM356.2 211H353V207.8H356.2V211ZM244.2 211H241V207.8H244.2V211ZM732.2 211H729V207.8H732.2V211ZM260.2 211H257V207.8H260.2V211ZM596.2 211H593V207.8H596.2V211ZM316.2 211H313V207.8H316.2V211ZM660.2 211H657V207.8H660.2V211ZM628.2 211H625V207.8H628.2V211ZM308.2 211H305V207.8H308.2V211ZM372.2 211H369V207.8H372.2V211ZM724.2 211H721V207.8H724.2V211ZM672.2 215H669V211.8H672.2V215ZM600.2 215H597V211.8H600.2V215ZM608.2 215H605V211.8H608.2V215ZM664.2 215H661V211.8H664.2V215ZM632.2 215H629V211.8H632.2V215ZM616.2 215H613V211.8H616.2V215ZM648.2 215H645V211.8H648.2V215ZM680.2 215H677V211.8H680.2V215ZM656.2 215H653V211.8H656.2V215ZM688.2 215H685V211.8H688.2V215ZM624.2 215H621V211.8H624.2V215ZM640.2 215H637V211.8H640.2V215ZM636.2 219H633V215.8H636.2V219ZM652.2 219H649V215.8H652.2V219ZM312.2 219H309V215.8H312.2V219ZM676.2 219H673V215.8H676.2V219ZM620.2 219H617V215.8H620.2V219ZM352.2 219H349V215.8H352.2V219ZM644.2 219H641V215.8H644.2V219ZM320.2 219H317V215.8H320.2V219ZM684.2 219H681V215.8H684.2V219ZM336.2 219H333V215.8H336.2V219ZM612.2 219H609V215.8H612.2V219ZM384.2 219H381V215.8H384.2V219ZM628.2 219H625V215.8H628.2V219ZM668.2 219H665V215.8H668.2V219ZM660.2 219H657V215.8H660.2V219ZM604.2 219H601V215.8H604.2V219ZM328.2 219H325V215.8H328.2V219ZM376.2 219H373V215.8H376.2V219ZM648.2 223H645V219.8H648.2V223ZM656.2 223H653V219.8H656.2V223ZM640.2 223H637V219.8H640.2V223ZM680.2 223H677V219.8H680.2V223ZM632.2 223H629V219.8H632.2V223ZM688.2 223H685V219.8H688.2V223ZM616.2 223H613V219.8H616.2V223ZM624.2 223H621V219.8H624.2V223ZM608.2 223H605V219.8H608.2V223ZM664.2 223H661V219.8H664.2V223ZM600.2 223H597V219.8H600.2V223ZM672.2 223H669V219.8H672.2V223ZM628.2 227H625V223.8H628.2V227ZM604.2 227H601V223.8H604.2V227ZM620.2 227H617V223.8H620.2V227ZM660.2 227H657V223.8H660.2V227ZM316.2 227H313V223.8H316.2V227ZM652.2 227H649V223.8H652.2V227ZM612.2 227H609V223.8H612.2V227ZM716.2 227H713V223.8H716.2V227ZM700.2 227H697V223.8H700.2V227ZM668.2 227H665V223.8H668.2V227ZM676.2 227H673V223.8H676.2V227ZM644.2 227H641V223.8H644.2V227ZM684.2 227H681V223.8H684.2V227ZM636.2 227H633V223.8H636.2V227ZM332.2 227H329V223.8H332.2V227ZM732.2 227H729V223.8H732.2V227ZM748.2 227H745V223.8H748.2V227ZM324.2 227H321V223.8H324.2V227ZM616.2 231H613V227.8H616.2V231ZM640.2 231H637V227.8H640.2V231ZM608.2 231H605V227.8H608.2V231ZM648.2 231H645V227.8H648.2V231ZM688.2 231H685V227.8H688.2V231ZM632.2 231H629V227.8H632.2V231ZM680.2 231H677V227.8H680.2V231ZM624.2 231H621V227.8H624.2V231ZM672.2 231H669V227.8H672.2V231ZM600.2 231H597V227.8H600.2V231ZM656.2 231H653V227.8H656.2V231ZM664.2 231H661V227.8H664.2V231ZM676.2 235H673V231.8H676.2V235ZM660.2 235H657V231.8H660.2V235ZM652.2 235H649V231.8H652.2V235ZM644.2 235H641V231.8H644.2V235ZM668.2 235H665V231.8H668.2V235ZM636.2 235H633V231.8H636.2V235ZM620.2 235H617V231.8H620.2V235ZM336.2 235H333V231.8H336.2V235ZM684.2 235H681V231.8H684.2V235ZM328.2 235H325V231.8H328.2V235ZM612.2 235H609V231.8H612.2V235ZM320.2 235H317V231.8H320.2V235ZM628.2 235H625V231.8H628.2V235ZM312.2 235H309V231.8H312.2V235ZM604.2 235H601V231.8H604.2V235ZM680.2 239H677V235.8H680.2V239ZM664.2 239H661V235.8H664.2V239ZM656.2 239H653V235.8H656.2V239ZM648.2 239H645V235.8H648.2V239ZM672.2 239H669V235.8H672.2V239ZM624.2 239H621V235.8H624.2V239ZM616.2 239H613V235.8H616.2V239ZM640.2 239H637V235.8H640.2V239ZM688.2 239H685V235.8H688.2V239ZM600.2 239H597V235.8H600.2V239ZM632.2 239H629V235.8H632.2V239ZM608.2 239H605V235.8H608.2V239ZM636.2 243H633V239.8H636.2V243ZM676.2 243H673V239.8H676.2V243ZM396.2 243H393V239.8H396.2V243ZM372.2 243H369V239.8H372.2V243ZM652.2 243H649V239.8H652.2V243ZM692.2 243H705V239.8H708.2V243H721V275H689V239.8H692.2V243ZM308.2 243H273V207.8H276.2V211H297V207.8H300.2V211H305V223.8H308.2V227H305V239.8H308.2V243ZM628.2 243H625V239.8H628.2V243ZM644.2 243H641V239.8H644.2V243ZM316.2 243H313V239.8H316.2V243ZM324.2 243H321V239.8H324.2V243ZM660.2 243H657V239.8H660.2V243ZM684.2 243H681V239.8H684.2V243ZM332.2 243H329V239.8H332.2V243ZM740.2 243H737V239.8H740.2V243ZM668.2 243H665V239.8H668.2V243ZM724.2 243H721V239.8H724.2V243ZM312.2 247H309V243.8H312.2V247ZM320.2 247H317V243.8H320.2V247ZM328.2 247H325V243.8H328.2V247ZM336.2 247H333V243.8H336.2V247ZM308.2 251H305V247.8H308.2V251ZM316.2 251H313V247.8H316.2V251ZM332.2 251H329V247.8H332.2V251ZM324.2 251H321V247.8H324.2V251ZM312.2 255H309V251.8H312.2V255ZM336.2 255H333V251.8H336.2V255ZM320.2 255H317V251.8H320.2V255ZM328.2 255H325V251.8H328.2V255ZM668.2 259H665V255.8H668.2V259ZM332.2 259H329V255.8H332.2V259ZM636.2 259H633V255.8H636.2V259ZM652.2 259H649V255.8H652.2V259ZM380.2 259H377V255.8H380.2V259ZM396.2 259H393V255.8H396.2V259ZM300.2 259H297V255.8H300.2V259ZM284.2 259H281V255.8H284.2V259ZM684.2 259H681V255.8H684.2V259ZM308.2 259H305V255.8H308.2V259ZM324.2 259H321V255.8H324.2V259ZM316.2 259H313V255.8H316.2V259ZM336.2 263H333V259.8H336.2V263ZM312.2 263H309V259.8H312.2V263ZM328.2 263H325V259.8H328.2V263ZM320.2 263H317V259.8H320.2V263ZM332.2 267H329V263.8H332.2V267ZM308.2 267H305V263.8H308.2V267ZM316.2 267H313V263.8H316.2V267ZM324.2 267H321V263.8H324.2V267ZM336.2 271H333V267.8H336.2V271ZM312.2 271H309V267.8H312.2V271ZM320.2 271H317V267.8H320.2V271ZM328.2 271H325V267.8H328.2V271ZM324.2 275H321V271.8H324.2V275ZM372.2 275H337V239.8H340.2V243H361V239.8H364.2V243H369V271.8H372.2V275ZM660.2 275H657V271.8H660.2V275ZM316.2 275H313V271.8H316.2V275ZM388.2 275H385V271.8H388.2V275ZM676.2 275H673V271.8H676.2V275ZM292.2 275H289V271.8H292.2V275ZM332.2 275H329V271.8H332.2V275ZM276.2 275H273V271.8H276.2V275ZM308.2 275H305V271.8H308.2V275ZM288.2 279H285V275.8H288.2V279ZM592.2 279H589V275.8H592.2V279ZM720.2 279H717V275.8H720.2V279ZM696.2 279H693V275.8H696.2V279ZM568.2 279H565V275.8H568.2V279ZM456.2 279H453V275.8H456.2V279ZM448.2 279H445V275.8H448.2V279ZM704.2 279H701V275.8H704.2V279ZM584.2 279H581V275.8H584.2V279ZM712.2 279H709V275.8H712.2V279ZM296.2 279H293V275.8H296.2V279ZM440.2 279H437V275.8H440.2V279ZM304.2 279H301V275.8H304.2V279ZM280.2 279H277V275.8H280.2V279ZM464.2 279H461V275.8H464.2V279ZM576.2 279H573V275.8H576.2V279ZM460.2 283H457V279.8H460.2V283ZM572.2 283H569V279.8H572.2V283ZM276.2 283H273V279.8H276.2V283ZM344.2 283H341V279.8H344.2V283ZM368.2 283H365V279.8H368.2V283ZM352.2 283H349V279.8H352.2V283ZM436.2 283H433V279.8H436.2V283ZM300.2 283H297V279.8H300.2V283ZM580.2 283H577V279.8H580.2V283ZM708.2 283H705V279.8H708.2V283ZM444.2 283H441V279.8H444.2V283ZM452.2 283H449V279.8H452.2V283ZM564.2 283H561V279.8H564.2V283ZM700.2 283H697V279.8H700.2V283ZM716.2 283H713V279.8H716.2V283ZM692.2 283H689V279.8H692.2V283ZM588.2 283H585V279.8H588.2V283ZM360.2 283H357V279.8H360.2V283ZM292.2 283H289V279.8H292.2V283ZM672.2 283H669V279.8H672.2V283ZM284.2 283H281V279.8H284.2V283ZM696.2 283H693V279.8H696.2V283ZM464.2 287H461V283.8H464.2V287ZM584.2 287H581V283.8H584.2V287ZM696.2 287H693V283.8H696.2V287ZM448.2 287H445V283.8H448.2V287ZM304.2 287H301V283.8H304.2V287ZM280.2 287H277V283.8H280.2V287ZM576.2 287H573V283.8H576.2V287ZM712.2 287H709V283.8H712.2V287ZM288.2 287H285V283.8H288.2V287ZM704.2 287H701V283.8H704.2V287ZM568.2 287H565V283.8H568.2V287ZM592.2 287H589V283.8H592.2V287ZM296.2 287H293V283.8H296.2V287ZM720.2 287H717V283.8H720.2V287ZM456.2 287H453V283.8H456.2V287ZM440.2 287H437V283.8H440.2V287ZM436.2 291H433V287.8H436.2V291ZM572.2 291H569V287.8H572.2V291ZM716.2 291H713V287.8H716.2V291ZM332.2 291H329V287.8H332.2V291ZM580.2 291H577V287.8H580.2V291ZM588.2 291H585V287.8H588.2V291ZM460.2 291H457V287.8H460.2V291ZM564.2 291H561V287.8H564.2V291ZM692.2 291H689V287.8H692.2V291ZM364.2 291H361V287.8H364.2V291ZM452.2 291H449V287.8H452.2V291ZM700.2 291H697V287.8H700.2V291ZM380.2 291H377V287.8H380.2V291ZM708.2 291H705V287.8H708.2V291ZM340.2 291H337V287.8H340.2V291ZM276.2 291H273V287.8H276.2V291ZM412.2 291H409V287.8H412.2V291ZM356.2 291H353V287.8H356.2V291ZM316.2 291H313V287.8H316.2V291ZM292.2 291H289V287.8H292.2V291ZM444.2 291H441V287.8H444.2V291ZM300.2 291H297V287.8H300.2V291ZM284.2 291H281V287.8H284.2V291ZM348.2 291H345V287.8H348.2V291ZM396.2 291H393V287.8H396.2V291ZM428.2 291H425V287.8H428.2V291ZM440.2 295H437V291.8H440.2V295ZM584.2 295H581V291.8H584.2V295ZM304.2 295H301V291.8H304.2V295ZM448.2 295H445V291.8H448.2V295ZM280.2 295H277V291.8H280.2V295ZM456.2 295H453V291.8H456.2V295ZM712.2 295H709V291.8H712.2V295ZM704.2 295H701V291.8H704.2V295ZM696.2 295H693V291.8H696.2V295ZM568.2 295H565V291.8H568.2V295ZM576.2 295H573V291.8H576.2V295ZM592.2 295H589V291.8H592.2V295ZM296.2 295H293V291.8H296.2V295ZM720.2 295H717V291.8H720.2V295ZM288.2 295H285V291.8H288.2V295ZM464.2 295H461V291.8H464.2V295ZM692.2 299H689V295.8H692.2V299ZM444.2 299H441V295.8H444.2V299ZM460.2 299H457V295.8H460.2V299ZM436.2 299H433V295.8H436.2V299ZM580.2 299H577V295.8H580.2V299ZM452.2 299H449V295.8H452.2V299ZM700.2 299H697V295.8H700.2V299ZM276.2 299H273V295.8H276.2V299ZM300.2 299H297V295.8H300.2V299ZM564.2 299H561V295.8H564.2V299ZM588.2 299H585V295.8H588.2V299ZM572.2 299H569V295.8H572.2V299ZM716.2 299H713V295.8H716.2V299ZM708.2 299H705V295.8H708.2V299ZM344.2 299H341V295.8H344.2V299ZM368.2 299H365V295.8H368.2V299ZM360.2 299H357V295.8H360.2V299ZM352.2 299H349V295.8H352.2V299ZM284.2 299H281V295.8H284.2V299ZM292.2 299H289V295.8H292.2V299ZM712.2 303H709V299.8H712.2V303ZM584.2 303H581V299.8H584.2V303ZM704.2 303H701V299.8H704.2V303ZM696.2 303H693V299.8H696.2V303ZM288.2 303H285V299.8H288.2V303ZM448.2 303H445V299.8H448.2V303ZM464.2 303H461V299.8H464.2V303ZM592.2 303H589V299.8H592.2V303ZM440.2 303H437V299.8H440.2V303ZM456.2 303H453V299.8H456.2V303ZM280.2 303H277V299.8H280.2V303ZM304.2 303H301V299.8H304.2V303ZM568.2 303H565V299.8H568.2V303ZM576.2 303H573V299.8H576.2V303ZM296.2 303H293V299.8H296.2V303ZM720.2 303H717V299.8H720.2V303ZM716.2 307H713V303.8H716.2V307ZM276.2 307H273V303.8H276.2V307ZM348.2 307H345V303.8H348.2V307ZM300.2 307H297V303.8H300.2V307ZM292.2 307H289V303.8H292.2V307ZM356.2 307H353V303.8H356.2V307ZM436.2 307H433V303.8H436.2V307ZM364.2 307H361V303.8H364.2V307ZM708.2 307H705V303.8H708.2V307ZM452.2 307H449V303.8H452.2V307ZM588.2 307H585V303.8H588.2V307ZM580.2 307H577V303.8H580.2V307ZM700.2 307H697V303.8H700.2V307ZM460.2 307H457V303.8H460.2V307ZM340.2 307H337V303.8H340.2V307ZM444.2 307H441V303.8H444.2V307ZM572.2 307H569V303.8H572.2V307ZM692.2 307H689V303.8H692.2V307ZM308.2 307H305V303.8H308.2V307ZM324.2 307H321V303.8H324.2V307ZM564.2 307H561V303.8H564.2V307ZM284.2 307H281V303.8H284.2V307ZM404.2 307H401V303.8H404.2V307ZM420.2 307H417V303.8H420.2V307ZM712.2 315H709V311.8H712.2V315ZM424.2 315H421V311.8H424.2V315ZM704.2 315H701V311.8H704.2V315ZM352.2 315H349V311.8H352.2V315ZM656.2 315H653V311.8H656.2V315ZM432.2 315H429V311.8H432.2V315ZM696.2 315H693V311.8H696.2V315ZM720.2 315H717V311.8H720.2V315ZM336.2 315H333V311.8H336.2V315ZM416.2 315H413V311.8H416.2V315ZM328.2 315H325V311.8H328.2V315ZM640.2 315H637V311.8H640.2V315ZM448.2 315H445V311.8H448.2V315ZM632.2 315H629V311.8H632.2V315ZM408.2 315H405V311.8H408.2V315ZM648.2 315H645V311.8H648.2V315ZM472.2 315H469V311.8H472.2V315ZM312.2 315H309V311.8H312.2V315ZM320.2 315H317V311.8H320.2V315ZM316.2 323H313V319.8H316.2V323ZM652.2 323H649V319.8H652.2V323ZM428.2 323H425V319.8H428.2V323ZM604.2 323H601V319.8H604.2V323ZM324.2 323H321V319.8H324.2V323ZM308.2 323H305V319.8H308.2V323ZM620.2 323H617V319.8H620.2V323ZM644.2 323H641V319.8H644.2V323ZM332.2 323H329V319.8H332.2V323ZM628.2 323H625V319.8H628.2V323ZM636.2 323H633V319.8H636.2V323ZM700.2 323H697V319.8H700.2V323ZM412.2 323H409V319.8H412.2V323ZM708.2 323H705V319.8H708.2V323ZM572.2 323H569V319.8H572.2V323ZM588.2 323H585V319.8H588.2V323ZM420.2 323H417V319.8H420.2V323ZM716.2 323H713V319.8H716.2V323ZM320.2 331H317V327.8H320.2V331ZM424.2 331H421V327.8H424.2V331ZM712.2 331H709V327.8H712.2V331ZM640.2 331H637V327.8H640.2V331ZM704.2 331H701V327.8H704.2V331ZM416.2 331H413V327.8H416.2V331ZM432.2 331H429V327.8H432.2V331ZM632.2 331H629V327.8H632.2V331ZM648.2 331H645V327.8H648.2V331ZM696.2 331H693V327.8H696.2V331ZM336.2 331H333V327.8H336.2V331ZM408.2 331H405V327.8H408.2V331ZM312.2 331H309V327.8H312.2V331ZM328.2 331H325V327.8H328.2V331ZM656.2 331H653V327.8H656.2V331ZM720.2 331H717V327.8H720.2V331ZM700.2 339H697V335.8H700.2V339ZM652.2 339H649V335.8H652.2V339ZM644.2 339H641V335.8H644.2V339ZM580.2 339H577V335.8H580.2V339ZM564.2 339H529V307H561V335.8H564.2V339ZM364.2 339H361V335.8H364.2V339ZM628.2 275H641V271.8H644.2V275H657V303.8H660.2V307H681V303.8H684.2V307H689V319.8H692.2V323H689V335.8H692.2V339H657V307H593V275H561V211H593V215.8H596.2V219H593V223.8H596.2V227H593V231.8H596.2V235H593V239.8H596.2V243H601V239.8H604.2V243H609V239.8H612.2V243H617V239.8H620.2V243H625V271.8H628.2V275ZM708.2 339H705V335.8H708.2V339ZM716.2 339H713V335.8H716.2V339ZM340.2 339H337V335.8H340.2V339ZM308.2 339H305V335.8H308.2V339ZM428.2 339H425V335.8H428.2V339ZM420.2 339H417V335.8H420.2V339ZM316.2 339H313V335.8H316.2V339ZM636.2 339H633V335.8H636.2V339ZM412.2 339H409V335.8H412.2V339ZM628.2 339H625V335.8H628.2V339ZM324.2 339H321V335.8H324.2V339ZM465 403H433V335.8H436.2V339H457V335.8H460.2V339H465V403ZM332.2 339H329V335.8H332.2V339ZM648.2 343H645V339.8H648.2V343ZM704.2 343H701V339.8H704.2V343ZM656.2 343H653V339.8H656.2V343ZM344.2 343H341V339.8H344.2V343ZM640.2 343H637V339.8H640.2V343ZM360.2 343H357V339.8H360.2V343ZM568.2 343H565V339.8H568.2V343ZM712.2 343H709V339.8H712.2V343ZM696.2 343H693V339.8H696.2V343ZM576.2 343H573V339.8H576.2V343ZM352.2 343H349V339.8H352.2V343ZM720.2 343H717V339.8H720.2V343ZM368.2 343H365V339.8H368.2V343ZM584.2 343H581V339.8H584.2V343ZM592.2 343H589V339.8H592.2V343ZM632.2 343H629V339.8H632.2V343ZM560.2 347H557V343.8H560.2V347ZM364.2 347H361V343.8H364.2V347ZM356.2 347H353V343.8H356.2V347ZM716.2 347H713V343.8H716.2V347ZM552.2 347H549V343.8H552.2V347ZM708.2 347H705V343.8H708.2V347ZM564.2 347H561V343.8H564.2V347ZM636.2 347H633V343.8H636.2V347ZM588.2 347H585V343.8H588.2V347ZM544.2 347H541V343.8H544.2V347ZM644.2 347H641V343.8H644.2V347ZM580.2 347H577V343.8H580.2V347ZM700.2 347H697V343.8H700.2V347ZM652.2 347H649V343.8H652.2V347ZM536.2 347H533V343.8H536.2V347ZM572.2 347H569V343.8H572.2V347ZM340.2 347H337V343.8H340.2V347ZM692.2 347H689V343.8H692.2V347ZM348.2 347H345V343.8H348.2V347ZM576.2 351H573V347.8H576.2V351ZM352.2 351H349V347.8H352.2V351ZM632.2 351H629V347.8H632.2V351ZM704.2 351H701V347.8H704.2V351ZM584.2 351H581V347.8H584.2V351ZM696.2 351H693V347.8H696.2V351ZM656.2 351H653V347.8H656.2V351ZM648.2 351H645V347.8H648.2V351ZM592.2 351H589V347.8H592.2V351ZM712.2 351H709V347.8H712.2V351ZM640.2 351H637V347.8H640.2V351ZM720.2 351H717V347.8H720.2V351ZM568.2 351H565V347.8H568.2V351ZM360.2 351H357V347.8H360.2V351ZM344.2 351H341V347.8H344.2V351ZM368.2 351H365V347.8H368.2V351ZM428.2 355H425V351.8H428.2V355ZM652.2 355H649V351.8H652.2V355ZM412.2 355H409V351.8H412.2V355ZM708.2 355H705V351.8H708.2V355ZM356.2 355H353V351.8H356.2V355ZM700.2 355H697V351.8H700.2V355ZM684.2 355H681V351.8H684.2V355ZM716.2 355H713V351.8H716.2V355ZM364.2 355H361V351.8H364.2V355ZM532.2 355H529V351.8H532.2V355ZM636.2 355H633V351.8H636.2V355ZM348.2 355H345V351.8H348.2V355ZM540.2 355H537V351.8H540.2V355ZM332.2 355H329V351.8H332.2V355ZM692.2 355H689V351.8H692.2V355ZM548.2 355H545V351.8H548.2V355ZM316.2 355H313V351.8H316.2V355ZM668.2 355H665V351.8H668.2V355ZM588.2 355H585V351.8H588.2V355ZM556.2 355H553V351.8H556.2V355ZM572.2 355H569V351.8H572.2V355ZM564.2 355H561V351.8H564.2V355ZM644.2 355H641V351.8H644.2V355ZM580.2 355H577V351.8H580.2V355ZM340.2 355H337V351.8H340.2V355ZM592.2 359H589V355.8H592.2V359ZM568.2 359H565V355.8H568.2V359ZM648.2 359H645V355.8H648.2V359ZM584.2 359H581V355.8H584.2V359ZM344.2 359H341V355.8H344.2V359ZM632.2 359H629V355.8H632.2V359ZM696.2 359H693V355.8H696.2V359ZM352.2 359H349V355.8H352.2V359ZM656.2 359H653V355.8H656.2V359ZM576.2 359H573V355.8H576.2V359ZM640.2 359H637V355.8H640.2V359ZM704.2 359H701V355.8H704.2V359ZM368.2 359H365V355.8H368.2V359ZM720.2 359H717V355.8H720.2V359ZM360.2 359H357V355.8H360.2V359ZM712.2 359H709V355.8H712.2V359ZM708.2 363H705V359.8H708.2V363ZM636.2 363H633V359.8H636.2V363ZM364.2 363H361V359.8H364.2V363ZM716.2 363H713V359.8H716.2V363ZM356.2 363H353V359.8H356.2V363ZM700.2 363H697V359.8H700.2V363ZM340.2 363H337V359.8H340.2V363ZM536.2 363H533V359.8H536.2V363ZM572.2 363H569V359.8H572.2V363ZM544.2 363H541V359.8H544.2V363ZM692.2 363H689V359.8H692.2V363ZM652.2 363H649V359.8H652.2V363ZM552.2 363H549V359.8H552.2V363ZM580.2 363H577V359.8H580.2V363ZM348.2 363H345V359.8H348.2V363ZM564.2 363H561V359.8H564.2V363ZM560.2 363H557V359.8H560.2V363ZM644.2 363H641V359.8H644.2V363ZM588.2 363H585V359.8H588.2V363ZM656.2 367H653V363.8H656.2V367ZM592.2 367H589V363.8H592.2V367ZM568.2 367H565V363.8H568.2V367ZM352.2 367H349V363.8H352.2V367ZM696.2 367H693V363.8H696.2V367ZM648.2 367H645V363.8H648.2V367ZM584.2 367H581V363.8H584.2V367ZM704.2 367H701V363.8H704.2V367ZM576.2 367H573V363.8H576.2V367ZM720.2 367H717V363.8H720.2V367ZM344.2 367H341V363.8H344.2V367ZM368.2 367H365V363.8H368.2V367ZM360.2 367H357V363.8H360.2V367ZM632.2 367H629V363.8H632.2V367ZM712.2 367H709V363.8H712.2V367ZM640.2 367H637V363.8H640.2V367ZM420.2 371H417V367.8H420.2V371ZM324.2 371H321V367.8H324.2V371ZM308.2 371H305V367.8H308.2V371ZM660.2 371H673V367.8H676.2V371H689V403H657V367.8H660.2V371ZM588.2 371H585V367.8H588.2V371ZM572.2 371H569V367.8H572.2V371ZM716.2 371H713V367.8H716.2V371ZM708.2 371H705V367.8H708.2V371ZM700.2 371H697V367.8H700.2V371ZM692.2 371H689V367.8H692.2V371ZM564.2 371H561V367.8H564.2V371ZM652.2 371H649V367.8H652.2V371ZM556.2 371H553V367.8H556.2V371ZM644.2 371H641V367.8H644.2V371ZM548.2 371H545V367.8H548.2V371ZM540.2 371H537V367.8H540.2V371ZM532.2 371H529V367.8H532.2V371ZM596.2 339H609V335.8H612.2V339H625V343.8H628.2V347H625V351.8H628.2V355H625V359.8H628.2V363H625V367.8H628.2V371H593V335.8H596.2V339ZM636.2 371H633V367.8H636.2V371ZM580.2 371H577V367.8H580.2V371ZM312.2 375H309V371.8H312.2V375ZM336.2 375H333V371.8H336.2V375ZM320.2 375H317V371.8H320.2V375ZM328.2 375H325V371.8H328.2V375ZM308.2 379H305V375.8H308.2V379ZM600.2 379H597V375.8H600.2V379ZM608.2 379H605V375.8H608.2V379ZM316.2 379H313V375.8H316.2V379ZM332.2 379H329V375.8H332.2V379ZM624.2 379H621V375.8H624.2V379ZM576.2 379H573V375.8H576.2V379ZM408.2 379H405V375.8H408.2V379ZM416.2 379H413V375.8H416.2V379ZM424.2 379H421V375.8H424.2V379ZM432.2 379H429V375.8H432.2V379ZM324.2 379H321V375.8H324.2V379ZM616.2 379H613V375.8H616.2V379ZM320.2 383H317V379.8H320.2V383ZM312.2 383H309V379.8H312.2V383ZM336.2 383H333V379.8H336.2V383ZM328.2 383H325V379.8H328.2V383ZM604.2 387H601V383.8H604.2V387ZM612.2 387H609V383.8H612.2V387ZM428.2 387H425V383.8H428.2V387ZM620.2 387H617V383.8H620.2V387ZM596.2 387H593V383.8H596.2V387ZM420.2 387H417V383.8H420.2V387ZM556.2 387H553V383.8H556.2V387ZM412.2 387H409V383.8H412.2V387ZM308.2 387H305V383.8H308.2V387ZM540.2 387H537V383.8H540.2V387ZM316.2 387H313V383.8H316.2V387ZM324.2 387H321V383.8H324.2V387ZM636.2 387H633V383.8H636.2V387ZM652.2 387H649V383.8H652.2V387ZM332.2 387H329V383.8H332.2V387ZM320.2 391H317V387.8H320.2V391ZM336.2 391H333V387.8H336.2V391ZM312.2 391H309V387.8H312.2V391ZM328.2 391H325V387.8H328.2V391ZM608.2 395H605V391.8H608.2V395ZM616.2 395H613V391.8H616.2V395ZM624.2 395H621V391.8H624.2V395ZM600.2 395H597V391.8H600.2V395ZM432.2 395H429V391.8H432.2V395ZM332.2 395H329V391.8H332.2V395ZM308.2 395H305V391.8H308.2V395ZM424.2 395H421V391.8H424.2V395ZM416.2 395H413V391.8H416.2V395ZM408.2 395H405V391.8H408.2V395ZM324.2 395H321V391.8H324.2V395ZM316.2 395H313V391.8H316.2V395ZM336.2 399H333V395.8H336.2V399ZM312.2 399H309V395.8H312.2V399ZM328.2 399H325V395.8H328.2V399ZM320.2 399H317V395.8H320.2V399ZM588.2 403H585V399.8H588.2V403ZM532.2 403H529V399.8H532.2V403ZM324.2 403H321V399.8H324.2V403ZM316.2 403H313V399.8H316.2V403ZM548.2 403H545V399.8H548.2V403ZM340.2 371H345V367.8H348.2V371H353V367.8H356.2V371H361V367.8H364.2V371H369V303.8H372.2V307H385V303.8H388.2V307H401V319.8H404.2V323H401V335.8H404.2V339H401V367.8H404.2V371H401V383.8H404.2V387H401V399.8H404.2V403H337V367.8H340.2V371ZM412.2 403H409V399.8H412.2V403ZM332.2 403H329V399.8H332.2V403ZM612.2 403H609V399.8H612.2V403ZM420.2 403H417V399.8H420.2V403ZM564.2 403H561V399.8H564.2V403ZM620.2 403H617V399.8H620.2V403ZM604.2 403H601V399.8H604.2V403ZM308.2 403H305V399.8H308.2V403ZM428.2 403H425V399.8H428.2V403ZM596.2 403H593V399.8H596.2V403ZM544.2 411H541V407.8H544.2V411ZM320.2 411H317V407.8H320.2V411ZM344.2 411H341V407.8H344.2V411ZM576.2 411H573V407.8H576.2V411ZM336.2 411H333V407.8H336.2V411ZM328.2 411H325V407.8H328.2V411ZM552.2 411H549V407.8H552.2V411ZM584.2 411H581V407.8H584.2V411ZM352.2 411H349V407.8H352.2V411ZM568.2 411H565V407.8H568.2V411ZM592.2 411H589V407.8H592.2V411ZM560.2 411H557V407.8H560.2V411ZM360.2 411H357V407.8H360.2V411ZM536.2 411H533V407.8H536.2V411ZM312.2 411H309V407.8H312.2V411ZM368.2 411H365V407.8H368.2V411ZM332.2 419H329V415.8H332.2V419ZM356.2 419H353V415.8H356.2V419ZM308.2 419H305V415.8H308.2V419ZM324.2 419H321V415.8H324.2V419ZM540.2 419H537V415.8H540.2V419ZM340.2 419H337V415.8H340.2V419ZM564.2 419H561V415.8H564.2V419ZM620.2 419H617V415.8H620.2V419ZM444.2 419H441V415.8H444.2V419ZM668.2 419H665V415.8H668.2V419ZM548.2 419H545V415.8H548.2V419ZM604.2 419H601V415.8H604.2V419ZM348.2 419H345V415.8H348.2V419ZM460.2 419H457V415.8H460.2V419ZM316.2 419H313V415.8H316.2V419ZM572.2 419H569V415.8H572.2V419ZM684.2 419H681V415.8H684.2V419ZM556.2 419H553V415.8H556.2V419ZM396.2 419H393V415.8H396.2V419ZM588.2 419H585V415.8H588.2V419ZM380.2 419H377V415.8H380.2V419ZM532.2 419H529V415.8H532.2V419ZM580.2 419H577V415.8H580.2V419ZM412.2 419H409V415.8H412.2V419ZM364.2 419H361V415.8H364.2V419ZM428.2 419H425V415.8H428.2V419ZM536.2 427H533V423.8H536.2V427ZM368.2 427H365V423.8H368.2V427ZM560.2 427H557V423.8H560.2V427ZM336.2 427H333V423.8H336.2V427ZM592.2 427H589V423.8H592.2V427ZM584.2 427H581V423.8H584.2V427ZM360.2 427H357V423.8H360.2V427ZM320.2 427H317V423.8H320.2V427ZM576.2 427H573V423.8H576.2V427ZM352.2 427H349V423.8H352.2V427ZM552.2 427H549V423.8H552.2V427ZM312.2 427H309V423.8H312.2V427ZM344.2 427H341V423.8H344.2V427ZM568.2 427H565V423.8H568.2V427ZM328.2 427H325V423.8H328.2V427ZM544.2 427H541V423.8H544.2V427ZM564.2 435H561V431.8H564.2V435ZM540.2 435H537V431.8H540.2V435ZM548.2 435H545V431.8H548.2V435ZM572.2 435H569V431.8H572.2V435ZM676.2 435H673V431.8H676.2V435ZM580.2 435H577V431.8H580.2V435ZM388.2 435H385V431.8H388.2V435ZM372.2 435H369V431.8H372.2V435ZM556.2 435H553V431.8H556.2V435ZM404.2 435H401V431.8H404.2V435ZM420.2 435H417V431.8H420.2V435ZM532.2 435H529V431.8H532.2V435ZM588.2 435H585V431.8H588.2V435ZM316.2 435H313V431.8H316.2V435ZM308.2 435H305V431.8H308.2V435ZM465 467H433V431.8H436.2V435H449V431.8H452.2V435H465V467ZM324.2 435H321V431.8H324.2V435ZM332.2 435H329V431.8H332.2V435ZM416.2 439H413V435.8H416.2V439ZM536.2 439H533V435.8H536.2V439ZM408.2 439H405V435.8H408.2V439ZM544.2 439H541V435.8H544.2V439ZM552.2 439H549V435.8H552.2V439ZM384.2 439H381V435.8H384.2V439ZM680.2 439H677V435.8H680.2V439ZM560.2 439H557V435.8H560.2V439ZM664.2 439H661V435.8H664.2V439ZM432.2 439H429V435.8H432.2V439ZM392.2 439H389V435.8H392.2V439ZM424.2 439H421V435.8H424.2V439ZM688.2 439H685V435.8H688.2V439ZM400.2 439H397V435.8H400.2V439ZM672.2 439H669V435.8H672.2V439ZM376.2 439H373V435.8H376.2V439ZM568.2 443H565V439.8H568.2V443ZM420.2 443H417V439.8H420.2V443ZM412.2 443H409V439.8H412.2V443ZM584.2 443H581V439.8H584.2V443ZM668.2 443H665V439.8H668.2V443ZM592.2 443H589V439.8H592.2V443ZM396.2 443H393V439.8H396.2V443ZM428.2 443H425V439.8H428.2V443ZM388.2 443H385V439.8H388.2V443ZM676.2 443H673V439.8H676.2V443ZM684.2 443H681V439.8H684.2V443ZM556.2 443H553V439.8H556.2V443ZM380.2 443H377V439.8H380.2V443ZM548.2 443H545V439.8H548.2V443ZM404.2 443H401V439.8H404.2V443ZM540.2 443H537V439.8H540.2V443ZM532.2 443H529V439.8H532.2V443ZM576.2 443H573V439.8H576.2V443ZM544.2 447H541V443.8H544.2V447ZM680.2 447H677V443.8H680.2V447ZM392.2 447H389V443.8H392.2V447ZM400.2 447H397V443.8H400.2V447ZM384.2 447H381V443.8H384.2V447ZM408.2 447H405V443.8H408.2V447ZM536.2 447H533V443.8H536.2V447ZM416.2 447H413V443.8H416.2V447ZM424.2 447H421V443.8H424.2V447ZM664.2 447H661V443.8H664.2V447ZM688.2 447H685V443.8H688.2V447ZM672.2 447H669V443.8H672.2V447ZM376.2 447H373V443.8H376.2V447ZM552.2 447H549V443.8H552.2V447ZM560.2 447H557V443.8H560.2V447ZM432.2 447H429V443.8H432.2V447ZM676.2 451H673V447.8H676.2V451ZM428.2 451H425V447.8H428.2V451ZM580.2 451H577V447.8H580.2V451ZM388.2 451H385V447.8H388.2V451ZM556.2 451H553V447.8H556.2V451ZM396.2 451H393V447.8H396.2V451ZM540.2 451H537V447.8H540.2V451ZM420.2 451H417V447.8H420.2V451ZM404.2 451H401V447.8H404.2V451ZM380.2 451H377V447.8H380.2V451ZM412.2 451H409V447.8H412.2V451ZM532.2 451H529V447.8H532.2V451ZM564.2 451H561V447.8H564.2V451ZM588.2 451H585V447.8H588.2V451ZM548.2 451H545V447.8H548.2V451ZM572.2 451H569V447.8H572.2V451ZM684.2 451H681V447.8H684.2V451ZM668.2 451H665V447.8H668.2V451ZM560.2 455H557V451.8H560.2V455ZM392.2 455H389V451.8H392.2V455ZM552.2 455H549V451.8H552.2V455ZM400.2 455H397V451.8H400.2V455ZM536.2 455H533V451.8H536.2V455ZM376.2 455H373V451.8H376.2V455ZM544.2 455H541V451.8H544.2V455ZM432.2 455H429V451.8H432.2V455ZM672.2 455H669V451.8H672.2V455ZM688.2 455H685V451.8H688.2V455ZM424.2 455H421V451.8H424.2V455ZM408.2 455H405V451.8H408.2V455ZM384.2 455H381V451.8H384.2V455ZM416.2 455H413V451.8H416.2V455ZM664.2 455H661V451.8H664.2V455ZM680.2 455H677V451.8H680.2V455ZM676.2 459H673V455.8H676.2V459ZM568.2 459H565V455.8H568.2V459ZM420.2 459H417V455.8H420.2V459ZM412.2 459H409V455.8H412.2V459ZM668.2 459H665V455.8H668.2V459ZM380.2 459H377V455.8H380.2V459ZM404.2 459H401V455.8H404.2V459ZM428.2 459H425V455.8H428.2V459ZM684.2 459H681V455.8H684.2V459ZM592.2 459H589V455.8H592.2V459ZM576.2 459H573V455.8H576.2V459ZM548.2 459H545V455.8H548.2V459ZM396.2 459H393V455.8H396.2V459ZM388.2 459H385V455.8H388.2V459ZM584.2 459H581V455.8H584.2V459ZM532.2 459H529V455.8H532.2V459ZM540.2 459H537V455.8H540.2V459ZM556.2 459H553V455.8H556.2V459ZM408.2 463H405V459.8H408.2V463ZM400.2 463H397V459.8H400.2V463ZM392.2 463H389V459.8H392.2V463ZM664.2 463H661V459.8H664.2V463ZM544.2 463H541V459.8H544.2V463ZM688.2 463H685V459.8H688.2V463ZM552.2 463H549V459.8H552.2V463ZM560.2 463H557V459.8H560.2V463ZM424.2 463H421V459.8H424.2V463ZM536.2 463H533V459.8H536.2V463ZM680.2 463H677V459.8H680.2V463ZM432.2 463H429V459.8H432.2V463ZM672.2 463H669V459.8H672.2V463ZM416.2 463H413V459.8H416.2V463ZM384.2 463H381V459.8H384.2V463ZM376.2 463H373V459.8H376.2V463ZM572.2 467H569V463.8H572.2V467ZM580.2 467H577V463.8H580.2V467ZM372.2 467H337V431.8H340.2V435H345V431.8H348.2V435H353V431.8H356.2V435H361V431.8H364.2V435H369V439.8H372.2V443H369V447.8H372.2V451H369V455.8H372.2V459H369V463.8H372.2V467ZM588.2 467H585V463.8H588.2V467ZM380.2 467H377V463.8H380.2V467ZM420.2 467H417V463.8H420.2V467ZM564.2 467H561V463.8H564.2V467ZM668.2 467H665V463.8H668.2V467ZM428.2 467H425V463.8H428.2V467ZM676.2 467H673V463.8H676.2V467ZM532.2 467H529V463.8H532.2V467ZM412.2 467H409V463.8H412.2V467ZM396.2 467H393V463.8H396.2V467ZM556.2 467H553V463.8H556.2V467ZM404.2 467H401V463.8H404.2V467ZM548.2 467H545V463.8H548.2V467ZM540.2 467H537V463.8H540.2V467ZM684.2 467H681V463.8H684.2V467ZM388.2 467H385V463.8H388.2V467ZM352.2 471H349V467.8H352.2V471ZM368.2 471H365V467.8H368.2V471ZM536.2 471H533V467.8H536.2V471ZM544.2 471H541V467.8H544.2V471ZM344.2 471H341V467.8H344.2V471ZM552.2 471H549V467.8H552.2V471ZM560.2 471H557V467.8H560.2V471ZM360.2 471H357V467.8H360.2V471ZM584.2 475H581V471.8H584.2V475ZM416.2 475H413V471.8H416.2V475ZM356.2 475H353V471.8H356.2V475ZM364.2 475H361V471.8H364.2V475ZM408.2 475H405V471.8H408.2V475ZM540.2 475H537V471.8H540.2V475ZM340.2 475H337V471.8H340.2V475ZM472.2 475H469V471.8H472.2V475ZM592.2 475H589V471.8H592.2V475ZM348.2 475H345V471.8H348.2V475ZM548.2 475H545V471.8H548.2V475ZM448.2 475H445V471.8H448.2V475ZM556.2 475H553V471.8H556.2V475ZM432.2 475H429V471.8H432.2V475ZM424.2 475H421V471.8H424.2V475ZM568.2 475H565V471.8H568.2V475ZM576.2 475H573V471.8H576.2V475ZM552.2 479H549V475.8H552.2V479ZM360.2 479H357V475.8H360.2V479ZM352.2 479H349V475.8H352.2V479ZM368.2 479H365V475.8H368.2V479ZM536.2 479H533V475.8H536.2V479ZM544.2 479H541V475.8H544.2V479ZM344.2 479H341V475.8H344.2V479ZM560.2 479H557V475.8H560.2V479ZM420.2 483H417V479.8H420.2V483ZM356.2 483H353V479.8H356.2V483ZM428.2 483H425V479.8H428.2V483ZM580.2 483H577V479.8H580.2V483ZM476.2 483H473V479.8H476.2V483ZM412.2 483H409V479.8H412.2V483ZM556.2 483H553V479.8H556.2V483ZM652.2 483H649V479.8H652.2V483ZM364.2 483H361V479.8H364.2V483ZM588.2 483H585V479.8H588.2V483ZM548.2 483H545V479.8H548.2V483ZM636.2 483H633V479.8H636.2V483ZM348.2 483H345V479.8H348.2V483ZM396.2 483H393V479.8H396.2V483ZM340.2 483H337V479.8H340.2V483ZM380.2 483H377V479.8H380.2V483ZM572.2 483H569V479.8H572.2V483ZM404.2 483H401V479.8H404.2V483ZM540.2 483H537V479.8H540.2V483ZM564.2 483H561V479.8H564.2V483ZM492.2 483H489V479.8H492.2V483ZM544.2 487H541V483.8H544.2V487ZM360.2 487H357V483.8H360.2V487ZM560.2 487H557V483.8H560.2V487ZM368.2 487H365V483.8H368.2V487ZM344.2 487H341V483.8H344.2V487ZM552.2 487H549V483.8H552.2V487ZM352.2 487H349V483.8H352.2V487ZM536.2 487H533V483.8H536.2V487ZM584.2 491H581V487.8H584.2V491ZM540.2 491H537V487.8H540.2V491ZM568.2 491H565V487.8H568.2V491ZM348.2 491H345V487.8H348.2V491ZM416.2 491H413V487.8H416.2V491ZM548.2 491H545V487.8H548.2V491ZM592.2 491H589V487.8H592.2V491ZM364.2 491H361V487.8H364.2V491ZM556.2 491H553V487.8H556.2V491ZM424.2 491H421V487.8H424.2V491ZM576.2 491H573V487.8H576.2V491ZM432.2 491H429V487.8H432.2V491ZM340.2 491H337V487.8H340.2V491ZM356.2 491H353V487.8H356.2V491ZM408.2 491H405V487.8H408.2V491ZM544.2 495H541V491.8H544.2V495ZM352.2 495H349V491.8H352.2V495ZM536.2 495H533V491.8H536.2V495ZM344.2 495H341V491.8H344.2V495ZM552.2 495H549V491.8H552.2V495ZM560.2 495H557V491.8H560.2V495ZM368.2 495H365V491.8H368.2V495ZM360.2 495H357V491.8H360.2V495ZM484.2 499H481V495.8H484.2V499ZM356.2 499H353V495.8H356.2V499ZM364.2 499H361V495.8H364.2V499ZM532.2 499H497V467H529V471.8H532.2V475H529V479.8H532.2V483H529V487.8H532.2V491H529V495.8H532.2V499ZM540.2 499H537V495.8H540.2V499ZM348.2 499H345V495.8H348.2V499ZM548.2 499H545V495.8H548.2V499ZM556.2 499H553V495.8H556.2V499ZM340.2 499H337V495.8H340.2V499ZM468.2 499H465V495.8H468.2V499ZM628.2 499H593V431.8H596.2V435H609V431.8H612.2V435H625V399.8H628.2V403H641V399.8H644.2V403H657V431.8H660.2V435H657V439.8H660.2V443H657V447.8H660.2V451H657V455.8H660.2V459H657V463.8H660.2V467H625V495.8H628.2V499ZM644.2 499H641V495.8H644.2V499ZM352.2 503H349V499.8H352.2V503ZM360.2 503H357V499.8H360.2V503ZM600.2 503H597V499.8H600.2V503ZM560.2 503H557V499.8H560.2V503ZM368.2 503H365V499.8H368.2V503ZM536.2 503H533V499.8H536.2V503ZM344.2 503H341V499.8H344.2V503ZM608.2 503H605V499.8H608.2V503ZM528.2 503H525V499.8H528.2V503ZM544.2 503H541V499.8H544.2V503ZM616.2 503H613V499.8H616.2V503ZM624.2 503H621V499.8H624.2V503ZM520.2 503H517V499.8H520.2V503ZM504.2 503H501V499.8H504.2V503ZM552.2 503H549V499.8H552.2V503ZM512.2 503H509V499.8H512.2V503ZM508.2 507H505V503.8H508.2V507ZM548.2 507H545V503.8H548.2V507ZM348.2 507H345V503.8H348.2V507ZM516.2 507H513V503.8H516.2V507ZM500.2 507H497V503.8H500.2V507ZM472.2 507H469V503.8H472.2V507ZM620.2 507H617V503.8H620.2V507ZM524.2 507H521V503.8H524.2V507ZM480.2 507H477V503.8H480.2V507ZM612.2 507H609V503.8H612.2V507ZM488.2 507H485V503.8H488.2V507ZM540.2 507H537V503.8H540.2V507ZM496.2 507H493V503.8H496.2V507ZM356.2 507H353V503.8H356.2V507ZM340.2 507H337V503.8H340.2V507ZM604.2 507H601V503.8H604.2V507ZM364.2 507H361V503.8H364.2V507ZM532.2 507H529V503.8H532.2V507ZM556.2 507H553V503.8H556.2V507ZM560.2 511H557V507.8H560.2V511ZM616.2 511H613V507.8H616.2V511ZM520.2 511H517V507.8H520.2V511ZM600.2 511H597V507.8H600.2V511ZM552.2 511H549V507.8H552.2V511ZM536.2 511H533V507.8H536.2V511ZM352.2 511H349V507.8H352.2V511ZM512.2 511H509V507.8H512.2V511ZM504.2 511H501V507.8H504.2V511ZM344.2 511H341V507.8H344.2V511ZM624.2 511H621V507.8H624.2V511ZM608.2 511H605V507.8H608.2V511ZM368.2 511H365V507.8H368.2V511ZM528.2 511H525V507.8H528.2V511ZM360.2 511H357V507.8H360.2V511ZM544.2 511H541V507.8H544.2V511ZM340.2 515H337V511.8H340.2V515ZM484.2 515H481V511.8H484.2V515ZM612.2 515H609V511.8H612.2V515ZM476.2 515H473V511.8H476.2V515ZM636.2 515H633V511.8H636.2V515ZM652.2 515H649V511.8H652.2V515ZM540.2 515H537V511.8H540.2V515ZM492.2 515H489V511.8H492.2V515ZM364.2 515H361V511.8H364.2V515ZM620.2 515H617V511.8H620.2V515ZM604.2 515H601V511.8H604.2V515ZM356.2 515H353V511.8H356.2V515ZM500.2 515H497V511.8H500.2V515ZM524.2 515H521V511.8H524.2V515ZM556.2 515H553V511.8H556.2V515ZM508.2 515H505V511.8H508.2V515ZM348.2 515H345V511.8H348.2V515ZM532.2 515H529V511.8H532.2V515ZM516.2 515H513V511.8H516.2V515ZM548.2 515H545V511.8H548.2V515ZM600.2 519H597V515.8H600.2V519ZM552.2 519H549V515.8H552.2V519ZM536.2 519H533V515.8H536.2V519ZM352.2 519H349V515.8H352.2V519ZM608.2 519H605V515.8H608.2V519ZM544.2 519H541V515.8H544.2V519ZM512.2 519H509V515.8H512.2V519ZM616.2 519H613V515.8H616.2V519ZM344.2 519H341V515.8H344.2V519ZM368.2 519H365V515.8H368.2V519ZM520.2 519H517V515.8H520.2V519ZM560.2 519H557V515.8H560.2V519ZM528.2 519H525V515.8H528.2V519ZM360.2 519H357V515.8H360.2V519ZM504.2 519H501V515.8H504.2V519ZM624.2 519H621V515.8H624.2V519ZM500.2 523H497V519.8H500.2V523ZM472.2 523H469V519.8H472.2V523ZM556.2 523H553V519.8H556.2V523ZM340.2 523H337V519.8H340.2V523ZM480.2 523H477V519.8H480.2V523ZM364.2 523H361V519.8H364.2V523ZM488.2 523H485V519.8H488.2V523ZM508.2 523H505V519.8H508.2V523ZM612.2 523H609V519.8H612.2V523ZM496.2 523H493V519.8H496.2V523ZM524.2 523H521V519.8H524.2V523ZM540.2 523H537V519.8H540.2V523ZM356.2 523H353V519.8H356.2V523ZM348.2 523H345V519.8H348.2V523ZM548.2 523H545V519.8H548.2V523ZM604.2 523H601V519.8H604.2V523ZM532.2 523H529V519.8H532.2V523ZM516.2 523H513V519.8H516.2V523ZM620.2 523H617V519.8H620.2V523ZM624.2 527H621V523.8H624.2V527ZM344.2 527H341V523.8H344.2V527ZM616.2 527H613V523.8H616.2V527ZM352.2 527H349V523.8H352.2V527ZM360.2 527H357V523.8H360.2V527ZM368.2 527H365V523.8H368.2V527ZM600.2 527H597V523.8H600.2V527ZM608.2 527H605V523.8H608.2V527ZM504.2 527H501V523.8H504.2V527ZM512.2 527H509V523.8H512.2V527ZM520.2 527H517V523.8H520.2V527ZM528.2 527H525V523.8H528.2V527ZM536.2 527H533V523.8H536.2V527ZM544.2 527H541V523.8H544.2V527ZM552.2 527H549V523.8H552.2V527ZM560.2 527H557V523.8H560.2V527ZM476.2 531H473V527.8H476.2V531ZM524.2 531H521V527.8H524.2V531ZM516.2 531H513V527.8H516.2V531ZM628.2 531H625V527.8H628.2V531ZM340.2 531H337V527.8H340.2V531ZM644.2 531H641V527.8H644.2V531ZM620.2 531H617V527.8H620.2V531ZM348.2 531H345V527.8H348.2V531ZM612.2 531H609V527.8H612.2V531ZM356.2 531H353V527.8H356.2V531ZM364.2 531H361V527.8H364.2V531ZM604.2 531H601V527.8H604.2V531ZM508.2 531H505V527.8H508.2V531ZM532.2 531H529V527.8H532.2V531ZM500.2 531H497V527.8H500.2V531ZM540.2 531H537V527.8H540.2V531ZM548.2 531H545V527.8H548.2V531ZM556.2 531H553V527.8H556.2V531ZM492.2 531H489V527.8H492.2V531ZM484.2 531H481V527.8H484.2V531ZM372.2 499H385V495.8H388.2V499H401V495.8H404.2V499H409V495.8H412.2V499H417V495.8H420.2V499H425V495.8H428.2V499H433V495.8H436.2V499H457V495.8H460.2V499H465V511.8H468.2V515H465V527.8H468.2V531H369V495.8H372.2V499ZM480.2 535H477V531.8H480.2V535ZM416.2 535H413V531.8H416.2V535ZM424.2 535H421V531.8H424.2V535ZM432.2 535H429V531.8H432.2V535ZM408.2 535H405V531.8H408.2V535ZM472.2 535H469V531.8H472.2V535ZM496.2 535H493V531.8H496.2V535ZM488.2 535H485V531.8H488.2V535ZM492.2 539H489V535.8H492.2V539ZM412.2 539H409V535.8H412.2V539ZM608.2 539H605V535.8H608.2V539ZM536.2 539H533V535.8H536.2V539ZM544.2 539H541V535.8H544.2V539ZM384.2 539H381V535.8H384.2V539ZM420.2 539H417V535.8H420.2V539ZM552.2 539H549V535.8H552.2V539ZM632.2 539H629V535.8H632.2V539ZM560.2 539H557V535.8H560.2V539ZM408.2 539H405V535.8H408.2V539ZM428.2 539H425V535.8H428.2V539ZM528.2 539H525V535.8H528.2V539ZM520.2 539H517V535.8H520.2V539ZM512.2 539H509V535.8H512.2V539ZM504.2 539H501V535.8H504.2V539ZM404.2 539H401V535.8H404.2V539ZM468.2 539H465V535.8H468.2V539ZM484.2 539H481V535.8H484.2V539ZM476.2 539H473V535.8H476.2V539ZM480.2 543H477V539.8H480.2V543ZM424.2 543H421V539.8H424.2V543ZM432.2 543H429V539.8H432.2V543ZM408.2 543H405V539.8H408.2V543ZM472.2 543H469V539.8H472.2V543ZM488.2 543H485V539.8H488.2V543ZM416.2 543H413V539.8H416.2V543ZM496.2 543H493V539.8H496.2V543ZM460.2 547H457V543.8H460.2V547ZM404.2 547H401V543.8H404.2V547ZM492.2 547H489V543.8H492.2V547ZM532.2 547H529V543.8H532.2V547ZM476.2 547H473V543.8H476.2V547ZM652.2 547H649V543.8H652.2V547ZM540.2 547H537V543.8H540.2V547ZM420.2 547H417V543.8H420.2V547ZM484.2 547H481V543.8H484.2V547ZM468.2 547H465V543.8H468.2V547ZM412.2 547H409V543.8H412.2V547ZM500.2 547H497V543.8H500.2V547ZM548.2 547H545V543.8H548.2V547ZM556.2 547H553V543.8H556.2V547ZM508.2 547H505V543.8H508.2V547ZM428.2 547H425V543.8H428.2V547ZM444.2 547H441V543.8H444.2V547ZM516.2 547H513V543.8H516.2V547ZM636.2 547H633V543.8H636.2V547ZM524.2 547H521V543.8H524.2V547ZM488.2 551H485V547.8H488.2V551ZM408.2 551H405V547.8H408.2V551ZM432.2 551H429V547.8H432.2V551ZM472.2 551H469V547.8H472.2V551ZM416.2 551H413V547.8H416.2V551ZM424.2 551H421V547.8H424.2V551ZM480.2 551H477V547.8H480.2V551ZM496.2 551H493V547.8H496.2V551ZM528.2 555H525V551.8H528.2V555ZM492.2 555H489V551.8H492.2V555ZM520.2 555H517V551.8H520.2V555ZM404.2 555H401V551.8H404.2V555ZM484.2 555H481V551.8H484.2V555ZM468.2 555H465V551.8H468.2V555ZM512.2 555H509V551.8H512.2V555ZM560.2 555H557V551.8H560.2V555ZM428.2 555H425V551.8H428.2V555ZM552.2 555H549V551.8H552.2V555ZM504.2 555H501V551.8H504.2V555ZM412.2 555H409V551.8H412.2V555ZM544.2 555H541V551.8H544.2V555ZM476.2 555H473V551.8H476.2V555ZM536.2 555H533V551.8H536.2V555ZM420.2 555H417V551.8H420.2V555ZM496.2 559H493V555.8H496.2V559ZM488.2 559H485V555.8H488.2V559ZM416.2 559H413V555.8H416.2V559ZM424.2 559H421V555.8H424.2V559ZM472.2 559H469V555.8H472.2V559ZM480.2 559H477V555.8H480.2V559ZM408.2 559H405V555.8H408.2V559ZM432.2 559H429V555.8H432.2V559ZM548.2 563H545V559.8H548.2V563ZM556.2 563H553V559.8H556.2V563ZM468.2 563H465V559.8H468.2V563ZM628.2 563H625V559.8H628.2V563ZM372.2 563H369V559.8H372.2V563ZM644.2 563H641V559.8H644.2V563ZM620.2 563H617V559.8H620.2V563ZM484.2 563H481V559.8H484.2V563ZM396.2 563H393V559.8H396.2V563ZM404.2 563H401V559.8H404.2V563ZM540.2 563H537V559.8H540.2V563ZM420.2 563H417V559.8H420.2V563ZM428.2 563H425V559.8H428.2V563ZM476.2 563H473V559.8H476.2V563ZM532.2 563H529V559.8H532.2V563ZM564.2 499H569V495.8H572.2V499H577V495.8H580.2V499H585V495.8H588.2V499H593V503.8H596.2V507H593V511.8H596.2V515H593V519.8H596.2V523H593V527.8H596.2V531H593V559.8H596.2V563H561V495.8H564.2V499ZM492.2 563H489V559.8H492.2V563ZM412.2 563H409V559.8H412.2V563ZM408.2 567H405V563.8H408.2V567ZM608.2 567H605V563.8H608.2V567ZM416.2 567H413V563.8H416.2V567ZM616.2 567H613V563.8H616.2V567ZM600.2 567H597V563.8H600.2V567ZM424.2 567H421V563.8H424.2V567ZM624.2 567H621V563.8H624.2V567ZM432.2 567H429V563.8H432.2V567ZM400.2 571H397V567.8H400.2V571ZM392.2 571H389V567.8H392.2V571ZM596.2 571H593V567.8H596.2V571ZM384.2 571H381V567.8H384.2V571ZM404.2 571H401V567.8H404.2V571ZM604.2 571H601V567.8H604.2V571ZM376.2 571H373V567.8H376.2V571ZM412.2 571H409V567.8H412.2V571ZM600.2 571H597V567.8H600.2V571ZM612.2 571H609V567.8H612.2V571ZM576.2 571H573V567.8H576.2V571ZM420.2 571H417V567.8H420.2V571ZM428.2 571H425V567.8H428.2V571ZM620.2 571H617V567.8H620.2V571ZM408.2 575H405V571.8H408.2V575ZM600.2 575H597V571.8H600.2V575ZM608.2 575H605V571.8H608.2V575ZM416.2 575H413V571.8H416.2V575ZM616.2 575H613V571.8H616.2V575ZM424.2 575H421V571.8H424.2V575ZM624.2 575H621V571.8H624.2V575ZM432.2 575H429V571.8H432.2V575ZM428.2 579H425V575.8H428.2V579ZM396.2 579H393V575.8H396.2V579ZM540.2 579H537V575.8H540.2V579ZM420.2 579H417V575.8H420.2V579ZM556.2 579H553V575.8H556.2V579ZM476.2 579H473V575.8H476.2V579ZM620.2 579H617V575.8H620.2V579ZM412.2 579H409V575.8H412.2V579ZM492.2 579H489V575.8H492.2V579ZM372.2 579H369V575.8H372.2V579ZM404.2 579H401V575.8H404.2V579ZM596.2 579H593V575.8H596.2V579ZM380.2 579H377V575.8H380.2V579ZM604.2 579H601V575.8H604.2V579ZM388.2 579H385V575.8H388.2V579ZM612.2 579H609V575.8H612.2V579ZM616.2 583H613V579.8H616.2V583ZM432.2 583H429V579.8H432.2V583ZM608.2 583H605V579.8H608.2V583ZM408.2 583H405V579.8H408.2V583ZM600.2 583H597V579.8H600.2V583ZM624.2 583H621V579.8H624.2V583ZM424.2 583H421V579.8H424.2V583ZM416.2 583H413V579.8H416.2V583ZM604.2 587H601V583.8H604.2V587ZM400.2 587H397V583.8H400.2V587ZM392.2 587H389V583.8H392.2V587ZM404.2 587H401V583.8H404.2V587ZM384.2 587H381V583.8H384.2V587ZM412.2 587H409V583.8H412.2V587ZM596.2 587H593V583.8H596.2V587ZM376.2 587H373V583.8H376.2V587ZM620.2 587H617V583.8H620.2V587ZM612.2 587H609V583.8H612.2V587ZM420.2 587H417V583.8H420.2V587ZM428.2 587H425V583.8H428.2V587ZM608.2 591H605V587.8H608.2V591ZM408.2 591H405V587.8H408.2V591ZM416.2 591H413V587.8H416.2V591ZM424.2 591H421V587.8H424.2V591ZM600.2 591H597V587.8H600.2V591ZM432.2 591H429V587.8H432.2V591ZM624.2 591H621V587.8H624.2V591ZM616.2 591H613V587.8H616.2V591ZM372.2 595H369V591.8H372.2V595ZM380.2 595H377V591.8H380.2V595ZM388.2 595H385V591.8H388.2V595ZM396.2 595H393V591.8H396.2V595ZM404.2 595H401V591.8H404.2V595ZM412.2 595H409V591.8H412.2V595ZM420.2 595H417V591.8H420.2V595ZM596.2 595H593V591.8H596.2V595ZM428.2 595H425V591.8H428.2V595ZM620.2 595H617V591.8H620.2V595ZM604.2 595H601V591.8H604.2V595ZM612.2 595H609V591.8H612.2V595ZM600.2 599H597V595.8H600.2V599ZM512.2 599H509V595.8H512.2V599ZM616.2 599H613V595.8H616.2V599ZM384.2 599H381V595.8H384.2V599ZM528.2 599H525V595.8H528.2V599ZM520.2 599H517V595.8H520.2V599ZM624.2 599H621V595.8H624.2V599ZM504.2 599H501V595.8H504.2V599ZM400.2 599H397V595.8H400.2V599ZM392.2 599H389V595.8H392.2V599ZM376.2 599H373V595.8H376.2V599ZM608.2 599H605V595.8H608.2V599ZM604.2 603H601V599.8H604.2V603ZM372.2 603H369V599.8H372.2V603ZM508.2 603H505V599.8H508.2V603ZM396.2 603H393V599.8H396.2V603ZM388.2 603H385V599.8H388.2V603ZM516.2 603H513V599.8H516.2V603ZM620.2 603H617V599.8H620.2V603ZM380.2 603H377V599.8H380.2V603ZM524.2 603H521V599.8H524.2V603ZM612.2 603H609V599.8H612.2V603ZM416.2 603H413V599.8H416.2V603ZM608.2 607H605V603.8H608.2V607ZM384.2 607H381V603.8H384.2V607ZM400.2 607H397V603.8H400.2V607ZM376.2 607H373V603.8H376.2V607ZM392.2 607H389V603.8H392.2V607ZM520.2 607H517V603.8H520.2V607ZM504.2 607H501V603.8H504.2V607ZM600.2 607H597V603.8H600.2V607ZM528.2 607H525V603.8H528.2V607ZM624.2 607H621V603.8H624.2V607ZM512.2 607H509V603.8H512.2V607ZM616.2 607H613V603.8H616.2V607ZM508.2 611H505V607.8H508.2V611ZM380.2 611H377V607.8H380.2V611ZM524.2 611H521V607.8H524.2V611ZM620.2 611H617V607.8H620.2V611ZM372.2 611H369V607.8H372.2V611ZM612.2 611H609V607.8H612.2V611ZM396.2 611H393V607.8H396.2V611ZM604.2 611H601V607.8H604.2V611ZM388.2 611H385V607.8H388.2V611ZM516.2 611H513V607.8H516.2V611ZM376.2 615H373V611.8H376.2V615ZM504.2 615H501V611.8H504.2V615ZM520.2 615H517V611.8H520.2V615ZM384.2 615H381V611.8H384.2V615ZM392.2 615H389V611.8H392.2V615ZM608.2 615H605V611.8H608.2V615ZM600.2 615H597V611.8H600.2V615ZM400.2 615H397V611.8H400.2V615ZM624.2 615H621V611.8H624.2V615ZM616.2 615H613V611.8H616.2V615ZM512.2 615H509V611.8H512.2V615ZM528.2 615H525V611.8H528.2V615ZM524.2 619H521V615.8H524.2V619ZM508.2 619H505V615.8H508.2V619ZM372.2 619H369V615.8H372.2V619ZM516.2 619H513V615.8H516.2V619ZM612.2 619H609V615.8H612.2V619ZM396.2 619H393V615.8H396.2V619ZM620.2 619H617V615.8H620.2V619ZM380.2 619H377V615.8H380.2V619ZM388.2 619H385V615.8H388.2V619ZM604.2 619H601V615.8H604.2V619ZM624.2 623H621V619.8H624.2V623ZM512.2 623H509V619.8H512.2V623ZM376.2 623H373V619.8H376.2V623ZM504.2 623H501V619.8H504.2V623ZM528.2 623H525V619.8H528.2V623ZM520.2 623H517V619.8H520.2V623ZM400.2 623H397V619.8H400.2V623ZM616.2 623H613V619.8H616.2V623ZM600.2 623H597V619.8H600.2V623ZM384.2 623H381V619.8H384.2V623ZM392.2 623H389V619.8H392.2V623ZM608.2 623H605V619.8H608.2V623ZM388.2 627H385V623.8H388.2V627ZM396.2 627H393V623.8H396.2V627ZM524.2 627H521V623.8H524.2V627ZM516.2 627H513V623.8H516.2V627ZM612.2 627H609V623.8H612.2V627ZM380.2 627H377V623.8H380.2V627ZM604.2 627H601V623.8H604.2V627ZM620.2 627H617V623.8H620.2V627ZM404.2 627H401V623.8H404.2V627ZM428.2 627H425V623.8H428.2V627ZM508.2 627H505V623.8H508.2V627ZM372.2 627H369V623.8H372.2V627ZM512.2 635H509V631.8H512.2V635ZM428.2 643H425V639.8H428.2V643ZM588.2 643H585V639.8H588.2V643ZM572.2 643H569V639.8H572.2V643ZM620.2 643H617V639.8H620.2V643ZM604.2 643H601V639.8H604.2V643ZM412.2 643H409V639.8H412.2V643ZM580.2 659H577V655.8H580.2V659ZM612.2 659H609V655.8H612.2V659ZM436.2 563H449V559.8H452.2V563H465V591.8H468.2V595H481V591.8H484.2V595H497V599.8H500.2V603H497V607.8H500.2V611H497V615.8H500.2V619H497V623.8H500.2V627H497V655.8H500.2V659H433V559.8H436.2V563ZM500.2 563H505V559.8H508.2V563H513V559.8H516.2V563H521V559.8H524.2V563H529V591.8H532.2V595H545V591.8H548.2V595H561V591.8H564.2V595H585V591.8H588.2V595H593V599.8H596.2V603H593V607.8H596.2V611H593V615.8H596.2V619H593V623.8H596.2V627H561V655.8H564.2V659H529V595H497V559.8H500.2V563ZM596.2 659H593V655.8H596.2V659ZM420.2 659H417V655.8H420.2V659ZM404.2 659H401V655.8H404.2V659ZM524.2 659H521V655.8H524.2V659Z" fill="white"/>
</svg>
